<svg width="1440" height="1374" viewBox="0 0 1440 1374" fill="none" xmlns="http://www.w3.org/2000/svg">
<path d="M94.9362 23.9172C-29.7407 -23.7718 -186.303 10.7259 -249 33.9359V1372.5H1689V5.38264C1613.76 8.88919 1524.42 108.074 1379.32 108.074C1234.22 108.074 1178.47 40.4481 966.868 13.3976C755.267 -13.6529 661.894 33.9359 533.589 66.9977C405.285 100.059 250.782 83.5285 94.9362 23.9172Z" fill="#F6FAFF"/>
<path d="M1345.06 1265.01C1469.74 1217.14 1626.3 1251.77 1689 1275.06V1374H-249V1246.4C-173.764 1249.92 -84.4209 1349.48 60.6771 1349.48C205.775 1349.48 261.531 1281.6 473.132 1254.45C684.733 1227.3 778.106 1275.06 906.411 1308.25C1034.72 1341.44 1189.22 1324.84 1345.06 1265.01Z" fill="white"/>
</svg>
