<svg width="274" height="105" viewBox="0 0 274 105" fill="none" xmlns="http://www.w3.org/2000/svg">
<path d="M105.686 33.4161C105.686 14.9619 120.966 0.00141065 139.816 9.9752e-08C158.666 -0.00141045 173.948 14.9568 173.951 33.4109C173.954 51.8651 158.676 66.8279 139.826 66.8321C130.772 66.8341 122.089 63.3144 115.686 57.0475C109.283 50.7805 105.686 42.2799 105.686 33.4161Z" fill="white"/>
<path d="M116.815 32.7205V30.7125L157.046 17.5377L171.921 22.0596C167.101 9.00133 154.535 0.22157 140.354 0.00412798C126.174 -0.213314 113.333 8.17687 108.098 21.0809C102.863 33.985 106.323 48.7141 116.792 58.0815V35.8552H126.084V63.9523C128.002 64.7789 129.993 65.4281 132.034 65.8913V35.7709H141.35V66.7267C143.352 66.6407 145.343 66.3842 147.3 65.9603V35.7709H156.592V62.4501C158.722 61.2696 160.717 59.8693 162.542 58.2731V35.7709H171.835V44.968C173.239 41.2567 173.955 37.3297 173.948 33.372C173.948 33.1651 173.948 32.9581 173.948 32.7512L116.815 32.7205Z" fill="#E1591A"/>
<path d="M42.0864 80.9877H54.0641V104.341H58.5499V80.9877H70.5276V76.5348H42.0864V80.9877Z" fill="#41883E"/>
<path d="M37.7963 76.5348H33.2714V104.341H37.7963V76.5348Z" fill="#41883E"/>
<path d="M14.5142 99.06L4.88503 76.5348H0L11.8603 104.341H17.1289L28.9892 76.5348H24.1042L14.5142 99.06Z" fill="#41883E"/>
<path d="M86.2944 76.5348C78.8416 76.5348 72.7745 82.7658 72.7745 90.4377V104.341H77.315V97.1822H95.3207V104.341H99.8222V90.4377C99.8222 82.7735 93.755 76.5348 86.3022 76.5348H86.2944ZM95.3207 90.4377V92.5224H77.315V90.4377C77.315 85.3103 81.3389 81.1487 86.2944 81.1487C91.2499 81.1487 95.3129 85.3103 95.3129 90.4377" fill="#41883E"/>
<path d="M124.067 76.5348L112.238 89.0811V76.5348H107.345V104.341H112.238V91.7943L124.067 104.341H130.487L117.327 90.4377L130.487 76.5348H124.067Z" fill="#41883E"/>
<path d="M244.251 100.984V104.448H219.983V76.6422H244.251V80.1067H223.007V88.7454H242.249V92.2549H223.007V100.984H244.251ZM267.128 88.8354C270.937 88.8354 274 92.2999 274 96.6192C274 100.939 270.937 104.448 267.128 104.448H249.731V100.984H267.128C269.248 100.984 270.937 99.0489 270.937 96.6192C270.937 94.2346 269.248 92.2999 267.128 92.2999H256.564C252.794 92.2999 249.731 88.7904 249.731 84.471C249.731 80.1517 252.794 76.6422 256.564 76.6422H273.961V80.1067H256.564C254.444 80.1067 252.755 82.0864 252.755 84.471C252.755 86.8557 254.444 88.7904 256.564 88.7904V88.8354H267.128ZM170.054 88.8354C173.863 88.8354 176.926 92.2999 176.926 96.6192C176.926 100.939 173.863 104.448 170.054 104.448H152.657V100.984H170.054C172.174 100.984 173.863 99.0489 173.863 96.6192C173.863 94.2346 172.174 92.2999 170.054 92.2999H159.49C155.72 92.2999 152.657 88.7904 152.657 84.471C152.657 80.1517 155.72 76.6422 159.49 76.6422H176.886V80.1067H159.49C157.369 80.1067 155.681 82.0864 155.681 84.471C155.681 86.8557 157.369 88.7904 159.49 88.7904V88.8354H170.054Z" fill="#575756"/>
<path d="M181.623 104.448V76.6422H185.202V104.448H181.623ZM188.053 80.3257V76.8219H216.455V80.3257H204.021V104.448H200.488V80.3257H188.053Z" fill="#575756"/>
</svg>
