<svg width="160" height="29" viewBox="0 0 160 29" fill="none" xmlns="http://www.w3.org/2000/svg">
<path d="M0 14.4637C3.3581e-07 6.47604 6.55446 0.000610578 14.6402 4.31762e-08C22.7259 -0.000610492 29.2814 6.47382 29.2826 14.4615C29.2839 22.4491 22.7304 28.9255 14.6447 28.9273C10.761 28.9282 7.03604 27.4048 4.28953 24.6922C1.54302 21.9796 0 18.3002 0 14.4637Z" fill="white"/>
<path d="M4.77409 14.1626V13.2935L22.0314 7.59094L28.4118 9.54818C26.3442 3.8961 20.9541 0.0959034 14.8712 0.00178674C8.78833 -0.09233 3.28033 3.53924 1.03464 9.12459C-1.21105 14.7099 0.273521 21.0852 4.76401 25.1397V15.5194H8.75008V27.6808C9.57244 28.0386 10.4269 28.3196 11.3022 28.5201V15.4829H15.2984V28.8817C16.1572 28.8445 17.0112 28.7335 17.8505 28.55V15.4829H21.8366V27.0306C22.7502 26.5197 23.6058 25.9136 24.3888 25.2227V15.4829H28.3748V19.4638C28.9772 17.8574 29.2842 16.1576 29.2815 14.4446C29.2815 14.355 29.2815 14.2655 29.2815 14.1759L4.77409 14.1626Z" fill="#E1591A"/>
<path d="M60.5196 10.3827H65.6575V20.4907H67.5817V10.3827H72.7196V8.45532H60.5196V10.3827Z" fill="#41883E"/>
<path d="M58.6794 8.45532H56.7384V20.4907H58.6794V8.45532Z" fill="#41883E"/>
<path d="M48.6924 18.205L44.5619 8.45532H42.4665L47.554 20.4907H49.814L54.9015 8.45532H52.8061L48.6924 18.205Z" fill="#41883E"/>
<path d="M79.4828 8.45532C76.2859 8.45532 73.6834 11.1523 73.6834 14.473V20.4907H75.6311V17.3923H83.3547V20.4907H85.2856V14.473C85.2856 11.1556 82.6831 8.45532 79.4862 8.45532H79.4828ZM83.3547 14.473V15.3753H75.6311V14.473C75.6311 12.2537 77.3572 10.4524 79.4828 10.4524C81.6085 10.4524 83.3514 12.2537 83.3514 14.473" fill="#41883E"/>
<path d="M95.6856 8.45532L90.6115 13.8858V8.45532H88.5127V20.4907H90.6115V15.0602L95.6856 20.4907H98.4392L92.7943 14.473L98.4392 8.45532H95.6856Z" fill="#41883E"/>
<path d="M147.239 19.0378V20.5373H136.829V8.50195H147.239V10.0015H138.126V13.7406H146.38V15.2597H138.126V19.0378H147.239ZM157.052 13.7796C158.686 13.7796 160 15.2792 160 17.1487C160 19.0183 158.686 20.5373 157.052 20.5373H149.59V19.0378H157.052C157.962 19.0378 158.686 18.2004 158.686 17.1487C158.686 16.1166 157.962 15.2791 157.052 15.2791H152.521C150.904 15.2791 149.59 13.7601 149.59 11.8906C149.59 10.021 150.904 8.50195 152.521 8.50195H159.983V10.0015H152.521C151.611 10.0015 150.887 10.8584 150.887 11.8906C150.887 12.9227 151.611 13.7601 152.521 13.7601V13.7796H157.052ZM115.412 13.7796C117.046 13.7796 118.36 15.2792 118.36 17.1487C118.36 19.0183 117.046 20.5373 115.412 20.5373H107.949V19.0378H115.412C116.321 19.0378 117.046 18.2004 117.046 17.1487C117.046 16.1166 116.321 15.2791 115.412 15.2791H110.88C109.263 15.2791 107.949 13.7601 107.949 11.8906C107.949 10.021 109.263 8.50195 110.88 8.50195H118.343V10.0015H110.88C109.971 10.0015 109.247 10.8584 109.247 11.8906C109.247 12.9227 109.971 13.7601 110.88 13.7601V13.7796H115.412Z" fill="#575756"/>
<path d="M120.374 20.5373V8.50195H121.91V20.5373H120.374ZM123.133 10.0963V8.57973H135.316V10.0963H129.982V20.5373H128.467V10.0963H123.133Z" fill="#575756"/>
</svg>
