<svg id="option1" width="100" height="100" viewBox="0 0 60 60" fill="currentColor"  xmlns="http://www.w3.org/2000/svg">
<g clip-path="url(#clip0_527_513)">
<path d="M46.5962 7.33691C46.5962 6.68969 46.0715 6.16504 45.4243 6.16504H45.4176C44.7704 6.16504 44.249 6.68969 44.249 7.33691C44.249 7.98414 44.777 8.50879 45.4242 8.50879C46.0714 8.50879 46.5962 7.98414 46.5962 7.33691Z" />
<path d="M52.9175 7.33691C52.9175 6.68969 52.3928 6.16504 51.7456 6.16504H51.7389C51.0917 6.16504 50.5703 6.68969 50.5703 7.33691C50.5703 7.98414 51.0982 8.50879 51.7455 8.50879C52.3927 8.50879 52.9175 7.98414 52.9175 7.33691Z" />
<path d="M40.2778 7.33691C40.2778 6.68969 39.7532 6.16504 39.1059 6.16504H39.0993C38.452 6.16504 37.9307 6.68969 37.9307 7.33691C37.9307 7.98414 38.4586 8.50879 39.1058 8.50879C39.7531 8.50879 40.2778 7.98414 40.2778 7.33691Z" />
<path d="M7.08301 7.33691C7.08301 7.98414 7.60766 8.50879 8.25488 8.50879H25.8466C26.4938 8.50879 27.0185 7.98414 27.0185 7.33691C27.0185 6.68969 26.4938 6.16504 25.8466 6.16504H8.25488C7.60777 6.16504 7.08301 6.68969 7.08301 7.33691Z" />
<path d="M56.2169 0H19.5786C18.9313 0 18.4067 0.524648 18.4067 1.17188C18.4067 1.8191 18.9313 2.34375 19.5786 2.34375H56.2169C56.9976 2.34375 57.6326 2.97738 57.6326 3.75621V12.3305H2.36816V3.75621C2.36816 2.97738 3.0018 2.34375 3.78062 2.34375H9.05547C9.70269 2.34375 10.2273 1.8191 10.2273 1.17188C10.2273 0.524648 9.70269 0 9.05547 0H3.78062C1.70945 0 0.0244141 1.68504 0.0244141 3.75621V56.2404C0.0244141 58.3134 1.70945 60 3.78062 60H56.2169C58.2898 60 59.9764 58.3134 59.9764 56.2404V3.75621C59.9764 1.68504 58.2898 0 56.2169 0ZM56.2169 57.6562H3.78062C3.0018 57.6562 2.36816 57.0211 2.36816 56.2404V14.6742H57.6326V56.2404C57.6326 57.0211 56.9975 57.6562 56.2169 57.6562Z" />
<path d="M10.9741 44.8374C8.28203 44.8374 6.0918 47.0275 6.0918 49.7197C6.0918 52.4099 8.28191 54.5987 10.9741 54.5987C13.6643 54.5987 15.8529 52.4099 15.8529 49.7197C15.8529 47.0276 13.6643 44.8374 10.9741 44.8374ZM10.9741 52.255C9.57438 52.255 8.43555 51.1177 8.43555 49.7198C8.43555 48.3201 9.57426 47.1813 10.9741 47.1813C12.3719 47.1813 13.5092 48.3201 13.5092 49.7198C13.5092 51.1177 12.372 52.255 10.9741 52.255Z" />
<path d="M23.6572 44.8374C20.9669 44.8374 18.7783 47.0275 18.7783 49.7197C18.7783 52.4099 20.967 54.5987 23.6572 54.5987C26.3473 54.5987 28.5361 52.4099 28.5361 49.7197C28.5361 47.0276 26.3475 44.8374 23.6572 44.8374ZM23.6572 52.255C22.2593 52.255 21.1221 51.1177 21.1221 49.7198C21.1221 48.3201 22.2594 47.1813 23.6572 47.1813C25.055 47.1813 26.1923 48.3201 26.1923 49.7198C26.1923 51.1177 25.0551 52.255 23.6572 52.255Z" />
<path d="M36.3398 44.8374C33.6495 44.8374 31.4609 47.0275 31.4609 49.7197C31.4609 52.4099 33.6496 54.5987 36.3398 54.5987C39.0318 54.5987 41.2221 52.4099 41.2221 49.7197C41.222 47.0276 39.0318 44.8374 36.3398 44.8374ZM36.3398 52.255C34.9419 52.255 33.8047 51.1177 33.8047 49.7198C33.8047 48.3201 34.942 47.1813 36.3398 47.1813C37.7395 47.1813 38.8783 48.3201 38.8783 49.7198C38.8782 51.1177 37.7395 52.255 36.3398 52.255Z" />
<path d="M49.0248 44.8374C46.3328 44.8374 44.1426 47.0275 44.1426 49.7197C44.1426 52.4099 46.3327 54.5987 49.0248 54.5987C51.7151 54.5987 53.9037 52.4099 53.9037 49.7197C53.9037 47.0276 51.715 44.8374 49.0248 44.8374ZM49.0248 52.255C47.6252 52.255 46.4863 51.1177 46.4863 49.7198C46.4863 48.3201 47.625 47.1813 49.0248 47.1813C50.4228 47.1813 51.56 48.3201 51.56 49.7198C51.56 51.1177 50.4227 52.255 49.0248 52.255Z" />
<path d="M6.09687 39.1259C6.13906 39.7318 6.6568 40.2156 7.26629 40.2156H33.4944C34.1339 40.2156 34.6679 39.682 34.6679 39.0437V19.2092C34.6679 18.562 34.1432 18.0374 33.496 18.0374H7.26465C6.61742 18.0374 6.09277 18.562 6.09277 19.2092V39.0436C6.09418 39.0711 6.09547 39.0985 6.09687 39.1259ZM25.5239 37.8718L23.3405 34.4307L26.2612 29.8301L31.3645 37.8718H25.5239ZM22.7482 37.8718H9.39641L16.0735 27.3522L22.7482 37.8718ZM32.3241 20.3811V35.01L27.2509 27.0154C27.0359 26.6767 26.6626 26.4715 26.2616 26.4715C25.8604 26.4715 25.4872 26.6767 25.2721 27.0153L21.9529 32.2438L17.0633 24.5375C16.8484 24.1987 16.475 23.9935 16.0739 23.9934C16.0739 23.9934 16.0739 23.9934 16.0737 23.9934C15.6726 23.9934 15.2994 24.1986 15.0843 24.5373L8.43641 35.0107V20.3811H32.3241Z" />
<path d="M39.6152 20.3811H52.6861C53.3333 20.3811 53.858 19.8565 53.858 19.2092C53.858 18.562 53.3333 18.0374 52.6861 18.0374H39.6152C38.968 18.0374 38.4434 18.562 38.4434 19.2092C38.4434 19.8565 38.968 20.3811 39.6152 20.3811Z" />
<path d="M39.6152 26.875H52.6861C53.3333 26.875 53.858 26.3504 53.858 25.7031C53.858 25.0559 53.3333 24.5312 52.6861 24.5312H39.6152C38.968 24.5312 38.4434 25.0559 38.4434 25.7031C38.4434 26.3504 38.968 26.875 39.6152 26.875Z" />
<path d="M39.6152 33.3662H52.6861C53.3333 33.3662 53.858 32.8416 53.858 32.1943C53.858 31.5471 53.3333 31.0225 52.6861 31.0225H39.6152C38.968 31.0225 38.4434 31.5471 38.4434 32.1943C38.4434 32.8416 38.968 33.3662 39.6152 33.3662Z" />
<path d="M39.6152 39.8569H52.6861C53.3333 39.8569 53.858 39.3323 53.858 38.6851C53.858 38.0378 53.3333 37.5132 52.6861 37.5132H39.6152C38.968 37.5132 38.4434 38.0378 38.4434 38.6851C38.4434 39.3323 38.968 39.8569 39.6152 39.8569Z" />
<path d="M14.3173 2.34375H14.3239C14.9712 2.34375 15.4925 1.8191 15.4925 1.17188C15.4925 0.524648 14.9646 0 14.3174 0C13.6702 0 13.1455 0.524648 13.1455 1.17188C13.1455 1.8191 13.6702 2.34375 14.3173 2.34375Z" />
</g>
<defs>
<clipPath id="clip0_527_513">
<rect width="100" height="100" fill="white"/>
</clipPath>
</defs>
</svg>


