<svg width="30" height="30" viewBox="0 0 30 30" fill="none" xmlns="http://www.w3.org/2000/svg">
<circle opacity="0.2" cx="15" cy="15" r="15" fill="#E1591A"/>
<path d="M23.5714 7.85693H6.42857C6.04969 7.85693 5.68633 8.00744 5.41842 8.27535C5.15051 8.54326 5 8.90662 5 9.28551V20.7141C5 21.093 5.15051 21.4563 5.41842 21.7242C5.68633 21.9921 6.04969 22.1426 6.42857 22.1426H23.5714C23.9503 22.1426 24.3137 21.9921 24.5816 21.7242C24.8495 21.4563 25 21.093 25 20.7141V9.28551C25 8.90662 24.8495 8.54326 24.5816 8.27535C24.3137 8.00744 23.9503 7.85693 23.5714 7.85693ZM22 9.28551L15 14.1284L8 9.28551H22ZM6.42857 20.7141V9.93551L14.5929 15.5855C14.7124 15.6685 14.8545 15.7129 15 15.7129C15.1455 15.7129 15.2876 15.6685 15.4071 15.5855L23.5714 9.93551V20.7141H6.42857Z" fill="#E1591A"/>
</svg>
