<svg width="120" height="120" viewBox="0 0 120 120" fill="none" xmlns="http://www.w3.org/2000/svg">
<g filter="url(#filter0_d)">
<rect x="25" y="20" width="70" height="70" rx="15" fill="#E1591A"/>
</g>
<g clip-path="url(#clip0)">
<path d="M39.0995 66.5177C36.839 66.5177 35 68.3567 35 70.6172C35 72.8777 36.839 74.7168 39.0995 74.7168C41.36 74.7168 43.1991 72.8777 43.1991 70.6172C43.1991 68.3567 41.36 66.5177 39.0995 66.5177ZM39.0995 72.7646C37.9154 72.7646 36.9522 71.8013 36.9522 70.6172C36.9522 69.4332 37.9154 68.4699 39.0995 68.4699C40.2836 68.4699 41.2469 69.4332 41.2469 70.6172C41.2469 71.8013 40.2836 72.7646 39.0995 72.7646Z" fill="white"/>
<path d="M80.9004 57.9282C83.1609 57.9282 85 56.0891 85 53.8286C85 51.5681 83.1609 49.7291 80.9004 49.7291C78.6399 49.7291 76.8009 51.5681 76.8009 53.8286C76.8009 54.0248 76.8156 54.2177 76.8424 54.4067L64.4399 59.3879C64.2325 59.0644 63.9921 58.7642 63.7214 58.494L67.2725 53.2812C67.5822 53.377 67.9111 53.4287 68.2517 53.4287C70.0817 53.4287 71.5704 51.94 71.5704 50.1101C71.5704 48.2801 70.0817 46.7914 68.2517 46.7914C66.4218 46.7914 64.9331 48.2801 64.9331 50.1101C64.9331 50.8925 65.2059 51.6121 65.6605 52.18L62.1088 57.3938C61.7502 57.2365 61.3708 57.1185 60.976 57.0442V30.9884C60.976 30.4493 60.539 30.0123 60 30.0123C59.461 30.0123 59.0239 30.4493 59.0239 30.9884V57.0441C59.0173 57.0454 59.0106 57.0464 59.004 57.0476L54.992 47.9324C55.6948 47.3235 56.1406 46.4255 56.1406 45.4248C56.1406 43.5948 54.6519 42.1061 52.822 42.1061C50.992 42.1061 49.5033 43.5948 49.5033 45.4248C49.5033 47.2548 50.992 48.7435 52.822 48.7435C52.952 48.7435 53.08 48.7352 53.2062 48.7205L57.1883 57.768C56.5714 58.1587 56.04 58.6728 55.6313 59.2769L46.3792 55.2889C46.4162 55.0677 46.4365 54.8409 46.4365 54.6094C46.4365 52.3489 44.5975 50.5099 42.337 50.5099C40.0765 50.5099 38.2374 52.3489 38.2374 54.6094C38.2374 56.8699 40.0765 58.7089 42.337 58.7089C43.6699 58.7089 44.8558 58.0691 45.6051 57.0809L54.8579 61.0693C54.7745 61.4408 54.7291 61.8265 54.7291 62.2228C54.7291 62.5734 54.7643 62.9158 54.8299 63.2474L49.77 65.2796C49.2697 65.4806 49.0271 66.0489 49.228 66.5492C49.3809 66.9301 49.747 67.1617 50.134 67.1617C50.255 67.1617 50.3783 67.139 50.4975 67.0911L55.56 65.0578C55.9743 65.7045 56.5255 66.2547 57.173 66.6679L54.4987 73.3619C54.4095 73.3547 54.3197 73.35 54.2287 73.35C52.3988 73.35 50.91 74.8387 50.91 76.6687C50.91 78.4986 52.3988 79.9873 54.2287 79.9873C56.0587 79.9873 57.5474 78.4986 57.5474 76.6687C57.5474 75.6268 57.0644 74.6961 56.3111 74.0872L58.9848 67.3945C59.3135 67.4589 59.6527 67.4935 60 67.4935C61.7132 67.4935 63.2375 66.6715 64.2009 65.4016L72.883 69.7186C72.818 70.0079 72.7827 70.3084 72.7827 70.617C72.7827 72.8775 74.6217 74.7165 76.8822 74.7165C79.1427 74.7165 80.9817 72.8775 80.9817 70.617C80.9817 68.3565 79.1427 66.5175 76.8822 66.5175C75.6293 66.5175 74.5066 67.083 73.7541 67.9715L65.0717 63.6544C65.2004 63.1989 65.2709 62.7191 65.2709 62.2228C65.2709 61.8722 65.2357 61.5298 65.1702 61.1982L77.572 56.2173C78.3168 57.2523 79.5308 57.9282 80.9004 57.9282ZM68.2517 48.7435C69.0053 48.7435 69.6182 49.3564 69.6182 50.11C69.6182 50.8635 69.0053 51.4765 68.2517 51.4765C67.4982 51.4765 66.8852 50.8635 66.8852 50.11C66.8852 49.3564 67.4982 48.7435 68.2517 48.7435ZM51.4555 45.4248C51.4555 44.6713 52.0685 44.0583 52.822 44.0583C53.5755 44.0583 54.1885 44.6713 54.1885 45.4248C54.1885 46.1783 53.5755 46.7913 52.822 46.7913C52.0685 46.7913 51.4555 46.1783 51.4555 45.4248ZM42.337 56.7569C41.1529 56.7569 40.1896 55.7936 40.1896 54.6095C40.1896 53.4254 41.1529 52.4621 42.337 52.4621C43.521 52.4621 44.4843 53.4254 44.4843 54.6095C44.4843 55.7936 43.521 56.7569 42.337 56.7569ZM54.2287 78.0354C53.4752 78.0354 52.8622 77.4224 52.8622 76.6689C52.8622 75.9153 53.4752 75.3024 54.2287 75.3024C54.9822 75.3024 55.5952 75.9153 55.5952 76.6689C55.5952 77.4224 54.9822 78.0354 54.2287 78.0354ZM76.8821 68.4698C78.0662 68.4698 79.0295 69.4331 79.0295 70.6172C79.0295 71.8013 78.0662 72.7646 76.8821 72.7646C75.698 72.7646 74.7347 71.8013 74.7347 70.6172C74.7347 69.4331 75.698 68.4698 76.8821 68.4698ZM60 65.5416C58.17 65.5416 56.6813 64.0529 56.6813 62.2229C56.6813 60.393 58.17 58.9042 60 58.9042C61.8299 58.9042 63.3186 60.393 63.3186 62.2229C63.3186 64.0529 61.8299 65.5416 60 65.5416ZM80.9004 51.6813C82.0845 51.6813 83.0478 52.6446 83.0478 53.8286C83.0478 55.0127 82.0845 55.976 80.9004 55.976C79.7164 55.976 78.7531 55.0127 78.7531 53.8286C78.7531 52.6446 79.7164 51.6813 80.9004 51.6813Z" fill="white"/>
<path d="M46.0804 66.8505C45.8237 66.8505 45.5719 66.9549 45.3905 67.1365C45.2079 67.318 45.1044 67.5689 45.1044 67.8265C45.1044 68.0833 45.2079 68.3351 45.3905 68.5166C45.5719 68.6982 45.8229 68.8026 46.0804 68.8026C46.3372 68.8026 46.589 68.6982 46.7705 68.5166C46.9521 68.3351 47.0565 68.0833 47.0565 67.8265C47.0565 67.5689 46.9522 67.318 46.7705 67.1365C46.5889 66.9549 46.3371 66.8505 46.0804 66.8505Z" fill="white"/>
</g>
<defs>
<filter id="filter0_d" x="0" y="0" width="120" height="120" filterUnits="userSpaceOnUse" color-interpolation-filters="sRGB">
<feFlood flood-opacity="0" result="BackgroundImageFix"/>
<feColorMatrix in="SourceAlpha" type="matrix" values="0 0 0 0 0 0 0 0 0 0 0 0 0 0 0 0 0 0 127 0" result="hardAlpha"/>
<feOffset dy="5"/>
<feGaussianBlur stdDeviation="12.5"/>
<feComposite in2="hardAlpha" operator="out"/>
<feColorMatrix type="matrix" values="0 0 0 0 0 0 0 0 0 0 0 0 0 0 0 0 0 0 0.07 0"/>
<feBlend mode="normal" in2="BackgroundImageFix" result="effect1_dropShadow"/>
<feBlend mode="normal" in="SourceGraphic" in2="effect1_dropShadow" result="shape"/>
</filter>
<clipPath id="clip0">
<rect width="50" height="50" fill="white" transform="translate(35 30)"/>
</clipPath>
</defs>
</svg>
