<svg width="70" height="70" viewBox="0 0 70 70" fill="none" xmlns="http://www.w3.org/2000/svg">
<rect width="70" height="70" rx="10" fill="#41883E"/>
<path d="M52.8867 16H48.4336C47.8188 16 47.3203 16.4985 47.3203 17.1133V18.2266H38.1484C37.6888 16.9309 36.4513 16 35 16C33.5487 16 32.3112 16.9309 31.8516 18.2266H22.6797V17.1133C22.6797 16.4985 22.1812 16 21.5664 16H17.1133C16.4985 16 16 16.4985 16 17.1133V21.5664C16 22.1812 16.4985 22.6797 17.1133 22.6797H21.5664C22.1812 22.6797 22.6797 22.1812 22.6797 21.5664V20.4383H27.3092C23.2928 22.9821 20.8513 27.2794 20.5576 31.8414C19.2462 32.2924 18.3008 33.5374 18.3008 35C18.3008 36.8416 19.799 38.3398 21.6406 38.3398C23.4822 38.3398 24.9805 36.8416 24.9805 35C24.9805 33.5616 24.0665 32.3327 22.7888 31.8635C23.1841 26.6202 26.9597 22.1042 32.0087 20.8229C32.556 21.9222 33.6909 22.6797 35 22.6797C36.3091 22.6797 37.444 21.9222 37.9913 20.823C43.0403 22.1043 46.8159 26.6203 47.2112 31.8636C45.9335 32.3327 45.0195 33.5616 45.0195 35C45.0195 36.8416 46.5178 38.3398 48.3594 38.3398C50.201 38.3398 51.6992 36.8416 51.6992 35C51.6992 33.5374 50.7538 32.2924 49.4424 31.8414C49.1481 27.2703 46.6993 22.9919 42.6908 20.4531H47.3203V21.5664C47.3203 22.1812 47.8188 22.6797 48.4336 22.6797H52.8867C53.5015 22.6797 54 22.1812 54 21.5664V17.1133C54 16.4985 53.5015 16 52.8867 16ZM20.4531 20.4531H18.2266V18.2266H20.4531V20.4531ZM21.6406 36.1133C21.0268 36.1133 20.5273 35.6139 20.5273 35C20.5273 34.3861 21.0268 33.8867 21.6406 33.8867C22.2545 33.8867 22.7539 34.3861 22.7539 35C22.7539 35.6139 22.2545 36.1133 21.6406 36.1133ZM35 20.4531C34.3861 20.4531 33.8867 19.9537 33.8867 19.3398C33.8867 18.726 34.3861 18.2266 35 18.2266C35.6139 18.2266 36.1133 18.726 36.1133 19.3398C36.1133 19.9537 35.6139 20.4531 35 20.4531ZM48.3594 33.8867C48.9732 33.8867 49.4727 34.3861 49.4727 35C49.4727 35.6139 48.9732 36.1133 48.3594 36.1133C47.7455 36.1133 47.2461 35.6139 47.2461 35C47.2461 34.3861 47.7455 33.8867 48.3594 33.8867ZM51.7734 20.4531H49.5469V18.2266H51.7734V20.4531Z" fill="white"/>
<path d="M44.8325 38.8355L35.9262 25.4762C35.9259 25.4758 35.9256 25.4753 35.9253 25.4748C35.9221 25.4701 35.9186 25.4655 35.9153 25.4609C35.9 25.4387 35.8839 25.4173 35.8672 25.3964C35.398 24.8135 34.5047 24.8529 34.0847 25.4609C34.0814 25.4655 34.0779 25.4701 34.0747 25.4748C34.0744 25.4753 34.074 25.4757 34.0737 25.4762L25.1675 38.8356C24.8731 39.2771 24.9313 39.8651 25.3066 40.2403C27.5277 42.4615 28.9414 45.3649 29.3266 48.4713C29.1537 48.611 28.9868 48.7606 28.8286 48.9226C27.7829 49.9922 27.207 51.4001 27.207 52.8867C27.207 53.5015 27.7055 54 28.3203 54H41.6797C42.2945 54 42.793 53.5015 42.793 52.8867C42.793 51.4001 42.2171 49.9922 41.1715 48.9225C41.0132 48.7606 40.8464 48.6109 40.6734 48.4712C41.0585 45.3647 42.4722 42.4613 44.6933 40.2403C45.0687 39.8651 45.1269 39.277 44.8325 38.8355ZM35 38.3398C35.6139 38.3398 36.1133 38.8392 36.1133 39.4531C36.1133 40.067 35.6139 40.5664 35 40.5664C34.3861 40.5664 33.8867 40.067 33.8867 39.4531C33.8867 38.8392 34.3861 38.3398 35 38.3398ZM29.6234 51.7734C30.0866 50.4499 31.3423 49.4726 32.7734 49.4726H37.2266C38.6577 49.4726 39.9133 50.4499 40.3765 51.7734H29.6234ZM38.5807 47.4155C38.1428 47.3037 37.6889 47.2461 37.2266 47.2461H32.7734C32.3111 47.2461 31.8572 47.3037 31.4193 47.4156C30.8983 44.415 29.5452 41.6101 27.5117 39.3332L33.8867 29.7707V36.3048C32.5909 36.7644 31.6601 38.0018 31.6601 39.4532C31.6601 41.2948 33.1584 42.793 35 42.793C36.8416 42.793 38.3398 41.2948 38.3398 39.4532C38.3398 38.0018 37.4091 36.7644 36.1133 36.3048V29.7707L42.4884 39.3332C40.4548 41.6099 39.1016 44.4148 38.5807 47.4155Z" fill="white"/>
</svg>
