<svg width="30" height="30" viewBox="0 0 30 30" fill="none" xmlns="http://www.w3.org/2000/svg">
<circle opacity="0.2" cx="15" cy="15" r="15" fill="#E1591A"/>
<path d="M19.5 23.3333C16.0978 23.3289 12.8361 21.9754 10.4304 19.5696C8.02459 17.1638 6.6711 13.9022 6.66669 10.4999C6.66669 9.48327 7.07055 8.50825 7.78944 7.78936C8.50833 7.07047 9.48336 6.6666 10.5 6.6666C10.7153 6.66496 10.9302 6.6845 11.1417 6.72493C11.3461 6.75518 11.5471 6.80542 11.7417 6.87493C11.8786 6.92296 12.0005 7.00588 12.0955 7.11549C12.1905 7.22511 12.2553 7.35762 12.2834 7.49993L13.425 12.4999C13.4558 12.6357 13.4521 12.7769 13.4142 12.9108C13.3764 13.0448 13.3056 13.1671 13.2084 13.2666C13.1 13.3833 13.0917 13.3916 12.0667 13.9249C12.8875 15.7256 14.3277 17.1717 16.125 17.9999C16.6667 16.9666 16.675 16.9583 16.7917 16.8499C16.8912 16.7527 17.0135 16.6819 17.1474 16.644C17.2814 16.6062 17.4226 16.6025 17.5584 16.6333L22.5584 17.7749C22.6961 17.8069 22.8235 17.8734 22.9284 17.9681C23.0334 18.0629 23.1125 18.1828 23.1584 18.3166C23.2287 18.5144 23.2817 18.7179 23.3167 18.9249C23.3502 19.1344 23.3669 19.3462 23.3667 19.5583C23.3513 20.5706 22.9361 21.5357 22.2117 22.243C21.4872 22.9502 20.5124 23.3422 19.5 23.3333ZM10.5 8.33327C9.92606 8.33546 9.37623 8.56444 8.97038 8.97029C8.56453 9.37615 8.33555 9.92597 8.33335 10.4999C8.33556 13.4608 9.51275 16.2998 11.6064 18.3935C13.7001 20.4872 16.5391 21.6644 19.5 21.6666C20.074 21.6644 20.6238 21.4354 21.0297 21.0296C21.4355 20.6237 21.6645 20.0739 21.6667 19.4999V19.2249L17.8 18.3333L17.5584 18.7916C17.1834 19.5166 16.9084 20.0416 16.2084 19.7583C14.8274 19.264 13.5739 18.4683 12.539 17.429C11.504 16.3897 10.7135 15.1329 10.225 13.7499C9.92502 13.0999 10.4917 12.7999 11.2084 12.4249L11.6667 12.1999L10.775 8.33327H10.5Z" fill="#E1591A"/>
</svg>
