<svg width="70" height="70" viewBox="0 0 70 70" fill="none" xmlns="http://www.w3.org/2000/svg">
<rect width="70" height="70" rx="10" fill="#41883E"/>
<g clip-path="url(#clip0_527:677)">
<path d="M18.794 48.6669C18.094 48.6669 17.4211 48.8416 16.8241 49.1697C13.6793 45.1383 11.9531 40.1304 11.9531 35C11.9531 22.2917 22.2917 11.9531 35 11.9531C36.545 11.9531 38.0891 12.1069 39.5898 12.4101C40.1178 12.5169 40.6335 12.1751 40.7404 11.6464C40.8472 11.1177 40.5054 10.6027 39.9767 10.4955C38.3489 10.1667 36.6747 10 35 10C28.3224 10 22.0441 12.6005 17.3223 17.3223C12.6005 22.0441 10 28.3224 10 35C10 40.6171 11.9073 46.0989 15.3799 50.4934C14.9328 51.1613 14.6925 51.9464 14.6925 52.7685C14.6925 53.8641 15.1193 54.894 15.8941 55.6684C16.6685 56.4432 17.6984 56.87 18.794 56.87C19.8896 56.87 20.9196 56.4432 21.6943 55.6684C22.4691 54.894 22.8956 53.8637 22.8956 52.7681C22.8956 51.6729 22.4691 50.6425 21.6943 49.8682C20.9196 49.0934 19.8896 48.6669 18.794 48.6669ZM20.313 54.2875C19.9075 54.6934 19.3678 54.9169 18.794 54.9169C18.2203 54.9169 17.6809 54.6934 17.275 54.2875C16.8691 53.8816 16.6456 53.3422 16.6456 52.7685C16.6456 52.1944 16.8691 51.655 17.275 51.2491C17.6805 50.8432 18.2203 50.62 18.794 50.62C19.3678 50.62 19.9072 50.8436 20.313 51.2491C20.7189 51.655 20.9425 52.1944 20.9425 52.7685C20.9425 53.3422 20.7189 53.8816 20.313 54.2875Z" fill="white"/>
<path d="M54.619 19.5054C55.6806 17.9128 55.5101 15.7353 54.1059 14.3311C53.3311 13.5567 52.3012 13.1299 51.2056 13.1299C50.11 13.1299 49.08 13.5567 48.3053 14.3311C47.5305 15.1059 47.104 16.1359 47.104 17.2314C47.104 18.327 47.5305 19.357 48.3053 20.1318C49.08 20.9065 50.11 21.333 51.2056 21.333C51.9056 21.333 52.5785 21.1583 53.1755 20.8302C56.3203 24.862 58.0465 29.8695 58.0465 34.9999C58.0465 47.7082 47.7079 58.0468 34.9996 58.0468C33.4699 58.0468 31.9402 57.8961 30.4536 57.5986C29.9249 57.4929 29.4103 57.8358 29.3043 58.3646C29.1986 58.8937 29.5416 59.4079 30.0703 59.5139C31.6827 59.8363 33.3414 59.9999 34.9996 59.9999C41.6772 59.9999 47.9555 57.3994 52.6773 52.6776C57.3991 47.9558 59.9996 41.6776 59.9996 34.9999C59.9996 29.3824 58.0919 23.9003 54.619 19.5054ZM49.6866 18.7508C49.2807 18.345 49.0572 17.8056 49.0572 17.2314C49.0572 16.6577 49.2807 16.1183 49.6866 15.7124C50.0921 15.3065 50.6319 15.083 51.2056 15.083C51.7793 15.083 52.3191 15.3065 52.725 15.7124C53.5623 16.5501 53.5623 17.9131 52.725 18.7508C52.3191 19.1563 51.7793 19.3799 51.2056 19.3799C50.6315 19.3799 50.0921 19.1563 49.6866 18.7508Z" fill="white"/>
<path d="M30.9697 51.7969C30.9697 52.3363 31.4073 52.7734 31.9463 52.7734H38.0525C38.5919 52.7734 39.029 52.3363 39.029 51.7969V49.9036C40.3131 49.558 41.5406 49.0491 42.6942 48.3846L44.0309 49.7213C44.214 49.9044 44.4623 50.0074 44.7217 50.0074C44.9803 50.0074 45.2291 49.9044 45.4122 49.7209L49.7281 45.4019C50.1092 45.0204 50.1092 44.4021 49.7281 44.021L48.393 42.6859C49.0575 41.5323 49.5664 40.3047 49.912 39.0207H51.798C52.3374 39.0207 52.7745 38.5835 52.7745 38.0441V31.9379C52.7745 31.3985 52.3374 30.9614 51.798 30.9614H49.9116C49.566 29.6777 49.0575 28.4502 48.393 27.2966L49.7209 25.9687C49.904 25.7856 50.007 25.5369 50.007 25.2779C50.0066 25.0188 49.9036 24.7701 49.7205 24.587L45.4011 20.2711C45.02 19.89 44.4017 19.89 44.0202 20.2715L42.6942 21.5978C41.5406 20.9333 40.3131 20.4244 39.029 20.0788V18.2031C39.029 17.6637 38.5919 17.2266 38.0525 17.2266H31.9463C31.4073 17.2266 30.9697 17.6637 30.9697 18.2031V20.0792C29.6861 20.4244 28.4585 20.9333 27.3049 21.5978L25.9786 20.2715C25.5975 19.8904 24.9791 19.89 24.5977 20.2711L20.2787 24.5874C20.0952 24.7705 19.9922 25.0188 19.9922 25.2779C19.9922 25.5369 20.0952 25.7856 20.2783 25.9687L21.6062 27.2966C20.9417 28.4502 20.4328 29.6774 20.0872 30.9614H18.2046C17.6652 30.9614 17.228 31.3985 17.228 31.9376L17.2246 38.0437C17.2242 38.3028 17.3272 38.5515 17.5103 38.7346C17.6934 38.9177 17.9418 39.0207 18.2012 39.0207H20.0872C20.4328 40.3047 20.9417 41.5323 21.6062 42.6859L20.271 44.021C19.8899 44.4021 19.8896 45.0204 20.271 45.4019L24.587 49.7209C24.7701 49.904 25.0184 50.0074 25.2774 50.0074H25.2778C25.5368 50.0074 25.7852 49.9044 25.9683 49.7213L27.3046 48.3846C28.4585 49.0491 29.6861 49.558 30.9697 49.9036V51.7969ZM27.6876 46.3308C27.3011 46.0809 26.7926 46.1351 26.4669 46.4605L25.2778 47.6495L22.3424 44.7118L23.5303 43.5236C23.8557 43.1982 23.9099 42.6897 23.66 42.3032C22.7746 40.933 22.1521 39.4312 21.8103 37.8389C21.7134 37.3891 21.3159 37.0676 20.8554 37.0676H19.1781L19.1804 32.9145H20.8554C21.3159 32.9145 21.7134 32.5933 21.8103 32.1432C22.1521 30.5513 22.7746 29.0495 23.66 27.6792C23.9099 27.2928 23.8557 26.7843 23.5303 26.4589L22.35 25.2782L25.2877 22.3428L26.4669 23.5223C26.7926 23.8477 27.3008 23.9015 27.6876 23.652C29.0574 22.7666 30.5593 22.1441 32.1515 21.8023C32.6013 21.7054 32.9229 21.3075 32.9229 20.8475V19.1797H37.0759V20.8471C37.0759 21.3075 37.3971 21.7054 37.8472 21.8019C39.4391 22.1441 40.9413 22.7663 42.3112 23.6517C42.6976 23.9015 43.2061 23.8477 43.5315 23.522L44.711 22.3428L47.6487 25.2782L46.4685 26.4585C46.1427 26.7843 46.0889 27.2928 46.3388 27.6792C47.2242 29.0495 47.8463 30.5513 48.1885 32.1432C48.285 32.5933 48.6829 32.9145 49.1433 32.9145H50.8214V37.0676H49.1433C48.6829 37.0676 48.2854 37.3891 48.1885 37.8389C47.8467 39.4308 47.2242 40.933 46.3388 42.3029C46.0889 42.6897 46.1431 43.1982 46.4685 43.5236L47.6564 44.7115L44.7209 47.6492L43.5319 46.4605C43.2061 46.1347 42.6976 46.0809 42.3112 46.3308C40.941 47.2162 39.4391 47.8384 37.8472 48.1805C37.3971 48.2774 37.0759 48.6749 37.0759 49.1354V50.8203H32.9229V49.1354C32.9229 48.6753 32.6013 48.2774 32.1515 48.1805C30.5596 47.8387 29.0578 47.2162 27.6876 46.3308Z" fill="white"/>
<path d="M43.0691 34.9999C43.0691 30.5504 39.4494 26.9307 34.9999 26.9307C30.5504 26.9307 26.9307 30.5504 26.9307 34.9999C26.9307 39.4494 30.5504 43.0691 34.9999 43.0691C39.4494 43.0691 43.0691 39.4494 43.0691 34.9999ZM28.8838 34.9999C28.8838 31.6273 31.6273 28.8838 34.9999 28.8838C38.3725 28.8838 41.116 31.6277 41.116 34.9999C41.116 38.3721 38.3725 41.116 34.9999 41.116C31.6273 41.116 28.8838 38.3725 28.8838 34.9999Z" fill="white"/>
<path d="M43.9922 13.6933C44.2493 13.6933 44.5011 13.5888 44.6826 13.4072C44.8642 13.2245 44.9688 12.9727 44.9688 12.7156C44.9688 12.46 44.8646 12.2078 44.6826 12.0251C44.5011 11.8435 44.2493 11.739 43.9922 11.739C43.7343 11.739 43.4837 11.8435 43.3021 12.0251C43.1201 12.2078 43.0156 12.4588 43.0156 12.7156C43.0156 12.9734 43.1201 13.2245 43.3021 13.4072C43.4837 13.5888 43.7343 13.6933 43.9922 13.6933Z" fill="white"/>
<path d="M26.0508 56.3242C25.7941 56.3242 25.5419 56.4287 25.3603 56.6103C25.1787 56.7919 25.0742 57.0441 25.0742 57.3008C25.0742 57.5587 25.1787 57.8097 25.3603 57.9912C25.5419 58.1728 25.7941 58.2773 26.0508 58.2773C26.3075 58.2773 26.5597 58.1728 26.7412 57.9912C26.9228 57.8097 27.0273 57.5575 27.0273 57.3008C27.0273 57.0441 26.9228 56.7919 26.7412 56.6103C26.5597 56.4287 26.3075 56.3242 26.0508 56.3242Z" fill="white"/>
</g>
<defs>
<clipPath id="clip0_527:677">
<rect width="50" height="50" fill="white" transform="translate(10 10)"/>
</clipPath>
</defs>
</svg>
