<svg width="70" height="70" viewBox="0 0 70 70" fill="none" xmlns="http://www.w3.org/2000/svg">
<rect width="70" height="70" rx="10" fill="#41883E"/>
<path d="M15.831 14.187C15.831 14.647 15.458 15.0199 14.998 15.0199C14.538 15.0199 14.165 14.647 14.165 14.187C14.165 13.727 14.538 13.354 14.998 13.354C15.458 13.354 15.831 13.727 15.831 14.187Z" fill="white"/>
<path d="M19.163 14.187C19.163 14.647 18.79 15.0199 18.33 15.0199C17.87 15.0199 17.4971 14.647 17.4971 14.187C17.4971 13.727 17.87 13.354 18.33 13.354C18.79 13.354 19.163 13.727 19.163 14.187Z" fill="white"/>
<path d="M22.4941 14.187C22.4941 14.647 22.1211 15.0199 21.6611 15.0199C21.2011 15.0199 20.8281 14.647 20.8281 14.187C20.8281 13.727 21.2011 13.354 21.6611 13.354C22.1211 13.354 22.4941 13.727 22.4941 14.187Z" fill="white"/>
<path d="M27.4921 13.354C27.0321 13.354 26.6592 13.727 26.6592 14.187C26.6592 14.647 27.0321 15.0199 27.4921 15.0199H48.3163C48.7763 15.0199 49.1493 14.647 49.1493 14.187C49.1493 13.727 48.7763 13.354 48.3163 13.354H27.4921Z" fill="white"/>
<path d="M22.0113 50.8374H11.6659V18.3516H48.3165C48.7765 18.3516 49.1495 17.9787 49.1495 17.5187C49.1495 17.0587 48.7765 16.6857 48.3165 16.6857H11.6659V11.6879H50.8154V22.0333C50.8154 22.4933 51.1884 22.8663 51.6484 22.8663C52.1084 22.8663 52.4813 22.4933 52.4813 22.0333V10.8549C52.4813 10.3949 52.1084 10.022 51.6484 10.022H10.833C10.373 10.022 10 10.3949 10 10.8549V51.6703C10 52.1303 10.373 52.5033 10.833 52.5033H22.0113C22.4713 52.5033 22.8443 52.1303 22.8443 51.6703C22.8443 51.2103 22.4713 50.8374 22.0113 50.8374Z" fill="white"/>
<path d="M59.7363 56.2184L55.155 51.6704L57.8373 49.8796C58.1135 49.6991 58.2575 49.3725 58.2038 49.0467C58.1481 48.7221 57.9065 48.461 57.5872 48.3801L46.4007 45.4065C46.1144 45.3321 45.8106 45.4147 45.6015 45.6237C45.3924 45.8328 45.3099 46.1366 45.3843 46.4229L48.3164 57.6094C48.3973 57.9287 48.6584 58.1703 48.9826 58.226C49.3084 58.2797 49.6354 58.1357 49.8155 57.8595L51.6482 55.1772L56.2296 59.7585C56.3866 59.9143 56.5997 60.0013 56.8209 60.0001C57.0422 60.0013 57.2553 59.9143 57.4123 59.7585L59.7697 57.4012C59.923 57.2405 60.006 57.0249 59.9995 56.8029C59.9934 56.5808 59.8986 56.3705 59.7363 56.2184ZM56.7876 57.9925L52.0729 53.2782C51.9179 53.1241 51.7084 53.0374 51.49 53.0366H51.4066C51.1594 53.0618 50.9365 53.1961 50.7986 53.4031L49.4658 55.394L47.3585 47.3808L55.3718 49.488L53.3809 50.8375C53.1739 50.9754 53.0396 51.1982 53.0144 51.4455C52.9916 51.6924 53.0803 51.9368 53.256 52.1117L57.9703 56.8265L56.7876 57.9925Z" fill="white"/>
<path d="M44.6183 53.7609C42.8808 54.4824 41.0327 54.9022 39.154 55.0022V47.5055C40.3856 47.5344 41.6147 47.6316 42.8357 47.7971C43.2957 47.8614 43.7211 47.5409 43.7854 47.0809C43.8496 46.6205 43.5291 46.1954 43.0691 46.1312C41.7705 45.9612 40.4633 45.864 39.154 45.8396V39.1758H47.4837C47.4414 40.4822 47.3137 41.7845 47.1006 43.0743C47.0245 43.5343 47.3361 43.9686 47.7961 44.0447C48.2561 44.1203 48.6904 43.8092 48.7665 43.3488C48.9878 41.968 49.1159 40.5737 49.1496 39.1758H54.9804C54.8938 41.052 54.4883 42.8998 53.781 44.6401C53.6085 45.0631 53.809 45.5467 54.2308 45.7228C54.3309 45.7655 54.4382 45.7883 54.5472 45.7895C54.8885 45.7899 55.1956 45.5821 55.3221 45.2649C56.2116 43.0661 56.6614 40.7145 56.6463 38.3429C56.6484 34.043 55.1321 29.8806 52.3648 26.5898C48.8869 22.429 43.7443 20.0225 38.3211 20.0176H37.7211C33.6763 20.1502 29.7876 21.6144 26.6595 24.1824C26.3028 24.4744 26.2508 25.0003 26.5428 25.357C26.8352 25.7133 27.3607 25.7658 27.7174 25.4734C29.1645 24.2829 30.7999 23.3425 32.557 22.6914C31.1676 24.2032 30.0768 25.9639 29.3418 27.8807C27.9216 27.4777 26.5302 26.9799 25.177 26.3897C24.8468 26.2502 24.464 26.3372 24.2273 26.6065C24.2273 26.6065 24.1854 26.6065 24.1687 26.6565C21.4738 29.9449 20.0019 34.0662 20.0039 38.3181C20.0043 42.5781 21.4954 46.7034 24.2188 49.9796L24.2773 50.0459C27.7414 54.2311 32.8881 56.658 38.3211 56.6681C40.6955 56.6698 43.0472 56.2057 45.2431 55.302C45.5367 55.2035 45.7515 54.9501 45.8003 54.6443C45.8495 54.3384 45.7246 54.0305 45.4765 53.8451C45.2284 53.6596 44.8978 53.6275 44.6183 53.7609ZM37.4881 54.9274C34.831 54.5023 32.4903 52.012 30.9826 48.3466C33.1166 47.8447 35.2967 47.5624 37.4881 47.5055V54.9274ZM37.4881 45.8396C35.0998 45.8888 32.7233 46.193 30.3997 46.7474C29.6322 44.2944 29.2141 41.7455 29.1584 39.1758H37.4881V45.8396ZM21.7032 39.1758H27.4925C27.5445 41.9005 27.9822 44.6035 28.792 47.2057C27.5576 47.5661 26.3451 47.9972 25.1603 48.4967C23.0795 45.8176 21.8728 42.5638 21.7032 39.1758ZM45.6095 28.3473C43.4913 28.8426 41.3284 29.1217 39.154 29.1802V21.7669C41.7863 22.2082 44.1018 24.7071 45.6095 28.3473ZM37.4881 37.5099H29.1584C29.2105 34.9309 29.6314 32.373 30.4079 29.9131C32.7278 30.4756 35.1014 30.7884 37.4881 30.8462V37.5099ZM39.154 30.8462C41.5228 30.7953 43.8793 30.4935 46.1842 29.9465C46.9578 32.3954 47.3784 34.9423 47.4337 37.5099H39.154V30.8462ZM54.9804 37.5099H49.1496C49.1 34.7885 48.6652 32.0879 47.8587 29.4885C49.1106 29.129 50.3401 28.695 51.5403 28.189C53.615 30.8702 54.8157 34.1239 54.9804 37.5099ZM50.3991 26.8562C49.3827 27.265 48.3455 27.6208 47.2921 27.9226C46.5617 25.9919 45.4643 24.2211 44.0603 22.708C46.4474 23.5943 48.601 25.0129 50.3576 26.8562H50.3991ZM37.4881 21.7583V29.1802C35.2967 29.1257 33.117 28.8467 30.9826 28.3473C32.4903 24.6737 34.831 22.1834 37.4881 21.7583ZM27.4925 37.5099H21.6617C21.8338 34.1251 23.034 30.8738 25.1018 28.189C26.2894 28.6885 27.5051 29.1196 28.7419 29.48C27.9476 32.0842 27.5271 34.7877 27.4925 37.5099ZM26.2845 49.8295C27.2851 49.4277 28.3055 49.0775 29.3418 48.7798C30.0744 50.6869 31.1595 52.439 32.5403 53.9443C30.1687 53.0674 28.0289 51.6598 26.2845 49.8295Z" fill="white"/>
<path d="M57.5455 30.3297C57.6732 30.6409 57.9754 30.8446 58.3118 30.8462C58.4212 30.8491 58.5294 30.8263 58.6282 30.7795C59.05 30.603 59.2505 30.1198 59.078 29.6969C58.2207 27.6242 57.0522 25.6947 55.6128 23.9743C55.3073 23.701 54.8481 23.6908 54.5305 23.9499C54.2132 24.2094 54.1315 24.6616 54.3385 25.0155C55.6697 26.6147 56.7512 28.4067 57.5455 30.3297Z" fill="white"/>
<path d="M21.0204 23.9741C17.667 28.0117 15.8315 33.0945 15.8311 38.3428C15.8311 38.8028 16.204 39.1758 16.664 39.1758C17.124 39.1758 17.497 38.8028 17.497 38.3428C17.4921 33.4752 19.1926 28.7596 22.3032 25.0154C22.5977 24.6611 22.5493 24.1352 22.195 23.8407C21.8408 23.5463 21.3149 23.5951 21.0204 23.9493V23.9741Z" fill="white"/>
</svg>
