<svg width="70" height="70" viewBox="0 0 70 70" fill="none" xmlns="http://www.w3.org/2000/svg">
<rect width="70" height="70" rx="10" fill="#41883E"/>
<path d="M37.0835 39.1667H28.7502C28.1976 39.1667 27.6677 39.3862 27.277 39.7769C26.8863 40.1676 26.6668 40.6975 26.6668 41.2501C26.6668 41.8026 26.8863 42.3325 27.277 42.7232C27.6677 43.1139 28.1976 43.3334 28.7502 43.3334H37.0835C37.636 43.3334 38.1659 43.1139 38.5566 42.7232C38.9473 42.3325 39.1668 41.8026 39.1668 41.2501C39.1668 40.6975 38.9473 40.1676 38.5566 39.7769C38.1659 39.3862 37.636 39.1667 37.0835 39.1667ZM45.4168 18.3334H42.9585C42.5287 17.1177 41.7333 16.0647 40.6815 15.3187C39.6297 14.5727 38.373 14.1704 37.0835 14.1667H32.9168C31.6274 14.1704 30.3706 14.5727 29.3188 15.3187C28.267 16.0647 27.4716 17.1177 27.0418 18.3334H24.5835C22.9259 18.3334 21.3362 18.9919 20.1641 20.164C18.992 21.3361 18.3335 22.9258 18.3335 24.5834V49.5834C18.3335 51.241 18.992 52.8307 20.1641 54.0028C21.3362 55.1749 22.9259 55.8334 24.5835 55.8334H45.4168C47.0744 55.8334 48.6641 55.1749 49.8362 54.0028C51.0083 52.8307 51.6668 51.241 51.6668 49.5834V24.5834C51.6668 22.9258 51.0083 21.3361 49.8362 20.164C48.6641 18.9919 47.0744 18.3334 45.4168 18.3334ZM30.8335 20.4167C30.8335 19.8642 31.053 19.3343 31.4437 18.9436C31.8344 18.5529 32.3643 18.3334 32.9168 18.3334H37.0835C37.636 18.3334 38.1659 18.5529 38.5566 18.9436C38.9473 19.3343 39.1668 19.8642 39.1668 20.4167V22.5001H30.8335V20.4167ZM47.5002 49.5834C47.5002 50.136 47.2807 50.6659 46.89 51.0566C46.4993 51.4473 45.9694 51.6668 45.4168 51.6668H24.5835C24.031 51.6668 23.5011 51.4473 23.1104 51.0566C22.7197 50.6659 22.5002 50.136 22.5002 49.5834V24.5834C22.5002 24.0309 22.7197 23.501 23.1104 23.1103C23.5011 22.7196 24.031 22.5001 24.5835 22.5001H26.6668V24.5834C26.6668 25.136 26.8863 25.6659 27.277 26.0566C27.6677 26.4473 28.1976 26.6667 28.7502 26.6667H41.2502C41.8027 26.6667 42.3326 26.4473 42.7233 26.0566C43.114 25.6659 43.3335 25.136 43.3335 24.5834V22.5001H45.4168C45.9694 22.5001 46.4993 22.7196 46.89 23.1103C47.2807 23.501 47.5002 24.0309 47.5002 24.5834V49.5834ZM41.2502 30.8334H28.7502C28.1976 30.8334 27.6677 31.0529 27.277 31.4436C26.8863 31.8343 26.6668 32.3642 26.6668 32.9167C26.6668 33.4693 26.8863 33.9992 27.277 34.3899C27.6677 34.7806 28.1976 35.0001 28.7502 35.0001H41.2502C41.8027 35.0001 42.3326 34.7806 42.7233 34.3899C43.114 33.9992 43.3335 33.4693 43.3335 32.9167C43.3335 32.3642 43.114 31.8343 42.7233 31.4436C42.3326 31.0529 41.8027 30.8334 41.2502 30.8334Z" fill="white"/>
</svg>
