<svg width="120" height="120" viewBox="0 0 120 120" fill="none" xmlns="http://www.w3.org/2000/svg">
<g filter="url(#filter0_d)">
<rect x="25" y="20" width="70" height="70" rx="15" fill="#E1591A"/>
</g>
<g clip-path="url(#clip0)">
<path d="M43.794 68.6669C43.094 68.6669 42.4211 68.8416 41.8241 69.1697C38.6793 65.1383 36.9531 60.1304 36.9531 55C36.9531 42.2917 47.2917 31.9531 60 31.9531C61.545 31.9531 63.0891 32.1069 64.5898 32.4101C65.1178 32.5169 65.6335 32.1751 65.7404 31.6464C65.8472 31.1177 65.5054 30.6027 64.9767 30.4955C63.3489 30.1667 61.6747 30 60 30C53.3224 30 47.0441 32.6005 42.3223 37.3223C37.6005 42.0441 35 48.3224 35 55C35 60.6171 36.9073 66.0989 40.3799 70.4934C39.9328 71.1613 39.6925 71.9464 39.6925 72.7685C39.6925 73.8641 40.1193 74.894 40.8941 75.6684C41.6685 76.4432 42.6984 76.87 43.794 76.87C44.8896 76.87 45.9196 76.4432 46.6943 75.6684C47.4691 74.894 47.8956 73.8637 47.8956 72.7681C47.8956 71.6729 47.4691 70.6425 46.6943 69.8682C45.9196 69.0934 44.8896 68.6669 43.794 68.6669ZM45.313 74.2875C44.9075 74.6934 44.3678 74.9169 43.794 74.9169C43.2203 74.9169 42.6809 74.6934 42.275 74.2875C41.8691 73.8816 41.6456 73.3422 41.6456 72.7685C41.6456 72.1944 41.8691 71.655 42.275 71.2491C42.6805 70.8432 43.2203 70.62 43.794 70.62C44.3678 70.62 44.9072 70.8436 45.313 71.2491C45.7189 71.655 45.9425 72.1944 45.9425 72.7685C45.9425 73.3422 45.7189 73.8816 45.313 74.2875Z" fill="white"/>
<path d="M79.6194 39.5054C80.681 37.9128 80.5105 35.7354 79.1063 34.3312C78.3315 33.5568 77.3015 33.1299 76.206 33.1299C75.1104 33.1299 74.0804 33.5568 73.3056 34.3312C72.5309 35.106 72.1044 36.1359 72.1044 37.2315C72.1044 38.3271 72.5309 39.3571 73.3056 40.1318C74.0804 40.9066 75.1104 41.3331 76.206 41.3331C76.906 41.3331 77.5789 41.1584 78.1759 40.8303C81.3207 44.862 83.0469 49.8696 83.0469 55C83.0469 67.7083 72.7083 78.0469 60 78.0469C58.4703 78.0469 56.9406 77.8962 55.454 77.5986C54.9253 77.493 54.4107 77.8359 54.3046 78.3646C54.199 78.8937 54.5419 79.4079 55.0706 79.514C56.6831 79.8363 58.3417 80 60 80C66.6776 80 72.9558 77.3995 77.6777 72.6777C82.3995 67.9558 85 61.6776 85 55C85 49.3825 83.0923 43.9004 79.6194 39.5054ZM74.687 38.7509C74.2811 38.345 74.0575 37.8056 74.0575 37.2315C74.0575 36.6578 74.2811 36.1184 74.687 35.7125C75.0925 35.3066 75.6322 35.0831 76.206 35.0831C76.7797 35.0831 77.3195 35.3066 77.7254 35.7125C78.5627 36.5502 78.5627 37.9132 77.7254 38.7509C77.3195 39.1564 76.7797 39.3799 76.206 39.3799C75.6319 39.3799 75.0925 39.1564 74.687 38.7509Z" fill="white"/>
<path d="M55.9701 71.7969C55.9701 72.3363 56.4076 72.7734 56.9467 72.7734H63.0528C63.5922 72.7734 64.0294 72.3363 64.0294 71.7969V69.9036C65.3134 69.558 66.541 69.0491 67.6946 68.3846L69.0312 69.7213C69.2143 69.9044 69.4627 70.0074 69.7221 70.0074C69.9807 70.0074 70.2294 69.9044 70.4125 69.7209L74.7285 65.4019C75.1096 65.0204 75.1096 64.4021 74.7285 64.021L73.3933 62.6859C74.0579 61.5323 74.5667 60.3047 74.9124 59.0207H76.7983C77.3377 59.0207 77.7749 58.5835 77.7749 58.0441V51.9379C77.7749 51.3985 77.3377 50.9614 76.7983 50.9614H74.912C74.5664 49.6777 74.0579 48.4502 73.3933 47.2966L74.7212 45.9687C74.9043 45.7856 75.0073 45.5369 75.0073 45.2779C75.007 45.0188 74.904 44.7701 74.7209 44.587L70.4015 40.2711C70.0204 39.89 69.402 39.89 69.0206 40.2715L67.6946 41.5978C66.541 40.9333 65.3134 40.4244 64.0294 40.0788V38.2031C64.0294 37.6637 63.5922 37.2266 63.0528 37.2266H56.9467C56.4076 37.2266 55.9701 37.6637 55.9701 38.2031V40.0792C54.6864 40.4244 53.4589 40.9333 52.3053 41.5978L50.9789 40.2715C50.5979 39.8904 49.9795 39.89 49.598 40.2711L45.279 44.5874C45.0955 44.7705 44.9925 45.0188 44.9925 45.2779C44.9925 45.5369 45.0955 45.7856 45.2786 45.9687L46.6065 47.2966C45.942 48.4502 45.4331 49.6774 45.0875 50.9614H43.205C42.6656 50.9614 42.2284 51.3985 42.2284 51.9376L42.225 58.0437C42.2246 58.3028 42.3276 58.5515 42.5107 58.7346C42.6938 58.9177 42.9421 59.0207 43.2015 59.0207H45.0875C45.4331 60.3047 45.942 61.5323 46.6065 62.6859L45.2714 64.021C44.8903 64.4021 44.8899 65.0204 45.2714 65.4019L49.5873 69.7209C49.7704 69.904 50.0188 70.0074 50.2778 70.0074H50.2782C50.5372 70.0074 50.7855 69.9044 50.9686 69.7213L52.3049 68.3846C53.4589 69.0491 54.6864 69.558 55.9701 69.9036V71.7969ZM52.6879 66.3308C52.3015 66.0809 51.793 66.1351 51.4672 66.4605L50.2782 67.6495L47.3428 64.7118L48.5307 63.5236C48.8561 63.1982 48.9102 62.6897 48.6604 62.3032C47.775 60.933 47.1524 59.4312 46.8106 57.8389C46.7137 57.3891 46.3162 57.0676 45.8558 57.0676H44.1785L44.1808 52.9145H45.8558C46.3162 52.9145 46.7137 52.5933 46.8106 52.1432C47.1524 50.5513 47.775 49.0495 48.6604 47.6792C48.9102 47.2928 48.8561 46.7843 48.5307 46.4589L47.3504 45.2782L50.2881 42.3428L51.4672 43.5223C51.793 43.8477 52.3011 43.9015 52.6879 43.652C54.0578 42.7666 55.5596 42.1441 57.1519 41.8023C57.6016 41.7054 57.9232 41.3075 57.9232 40.8475V39.1797H62.0763V40.8471C62.0763 41.3075 62.3975 41.7054 62.8476 41.8019C64.4395 42.1441 65.9417 42.7663 67.3116 43.6517C67.698 43.9015 68.2065 43.8477 68.5319 43.522L69.7114 42.3428L72.6491 45.2782L71.4688 46.4585C71.1431 46.7843 71.0893 47.2928 71.3391 47.6792C72.2245 49.0495 72.8467 50.5513 73.1889 52.1432C73.2854 52.5933 73.6833 52.9145 74.1437 52.9145H75.8218V57.0676H74.1437C73.6833 57.0676 73.2858 57.3891 73.1889 57.8389C72.8471 59.4308 72.2245 60.933 71.3391 62.3029C71.0893 62.6897 71.1434 63.1982 71.4688 63.5236L72.6567 64.7115L69.7213 67.6492L68.5323 66.4605C68.2065 66.1347 67.698 66.0809 67.3116 66.3308C65.9413 67.2162 64.4395 67.8384 62.8476 68.1805C62.3975 68.2774 62.0763 68.6749 62.0763 69.1354V70.8203H57.9232V69.1354C57.9232 68.6753 57.6016 68.2774 57.1519 68.1805C55.56 67.8387 54.0582 67.2162 52.6879 66.3308Z" fill="white"/>
<path d="M68.0692 55C68.0692 50.5506 64.4495 46.9308 60 46.9308C55.5506 46.9308 51.9308 50.5506 51.9308 55C51.9308 59.4495 55.5506 63.0692 60 63.0692C64.4495 63.0692 68.0692 59.4495 68.0692 55ZM53.8839 55C53.8839 51.6274 56.6274 48.8839 60 48.8839C63.3726 48.8839 66.1161 51.6278 66.1161 55C66.1161 58.3722 63.3726 61.1161 60 61.1161C56.6274 61.1161 53.8839 58.3726 53.8839 55Z" fill="white"/>
<path d="M68.9919 33.6934C69.2491 33.6934 69.5008 33.5889 69.6824 33.4073C69.864 33.2246 69.9685 32.9728 69.9685 32.7157C69.9685 32.4601 69.8644 32.208 69.6824 32.0252C69.5008 31.8437 69.2491 31.7391 68.9919 31.7391C68.7341 31.7391 68.4834 31.8437 68.3019 32.0252C68.1199 32.208 68.0154 32.459 68.0154 32.7157C68.0154 32.9736 68.1199 33.2246 68.3019 33.4073C68.4834 33.5889 68.7341 33.6934 68.9919 33.6934Z" fill="white"/>
<path d="M51.0508 76.3242C50.7941 76.3242 50.5419 76.4287 50.3603 76.6103C50.1787 76.7918 50.0742 77.044 50.0742 77.3007C50.0742 77.5586 50.1787 77.8096 50.3603 77.9912C50.5419 78.1728 50.7941 78.2773 51.0508 78.2773C51.3075 78.2773 51.5597 78.1728 51.7412 77.9912C51.9228 77.8096 52.0273 77.5574 52.0273 77.3007C52.0273 77.044 51.9228 76.7918 51.7412 76.6103C51.5597 76.4287 51.3075 76.3242 51.0508 76.3242Z" fill="white"/>
</g>
<defs>
<filter id="filter0_d" x="0" y="0" width="120" height="120" filterUnits="userSpaceOnUse" color-interpolation-filters="sRGB">
<feFlood flood-opacity="0" result="BackgroundImageFix"/>
<feColorMatrix in="SourceAlpha" type="matrix" values="0 0 0 0 0 0 0 0 0 0 0 0 0 0 0 0 0 0 127 0" result="hardAlpha"/>
<feOffset dy="5"/>
<feGaussianBlur stdDeviation="12.5"/>
<feComposite in2="hardAlpha" operator="out"/>
<feColorMatrix type="matrix" values="0 0 0 0 0 0 0 0 0 0 0 0 0 0 0 0 0 0 0.07 0"/>
<feBlend mode="normal" in2="BackgroundImageFix" result="effect1_dropShadow"/>
<feBlend mode="normal" in="SourceGraphic" in2="effect1_dropShadow" result="shape"/>
</filter>
<clipPath id="clip0">
<rect width="50" height="50" fill="white" transform="translate(35 30)"/>
</clipPath>
</defs>
</svg>
