<svg width="70" height="70" viewBox="0 0 70 70" fill="none" xmlns="http://www.w3.org/2000/svg">
<rect width="70" height="70" rx="10" fill="#41883E"/>
<path d="M18.794 48.6669C18.094 48.6669 17.4211 48.8416 16.8241 49.1697C13.6793 45.1383 11.9531 40.1304 11.9531 35C11.9531 22.2917 22.2917 11.9531 35 11.9531C36.545 11.9531 38.0891 12.1069 39.5898 12.4101C40.1178 12.5169 40.6335 12.1751 40.7404 11.6464C40.8472 11.1177 40.5054 10.6027 39.9767 10.4955C38.3489 10.1667 36.6747 10 35 10C28.3224 10 22.0441 12.6005 17.3223 17.3223C12.6005 22.0441 10 28.3224 10 35C10 40.6171 11.9073 46.0989 15.3799 50.4934C14.9328 51.1613 14.6925 51.9464 14.6925 52.7685C14.6925 53.8641 15.1193 54.894 15.8941 55.6684C16.6685 56.4432 17.6984 56.87 18.794 56.87C19.8896 56.87 20.9196 56.4432 21.6943 55.6684C22.4691 54.894 22.8956 53.8637 22.8956 52.7681C22.8956 51.6729 22.4691 50.6425 21.6943 49.8682C20.9196 49.0934 19.8896 48.6669 18.794 48.6669ZM20.313 54.2875C19.9075 54.6934 19.3678 54.9169 18.794 54.9169C18.2203 54.9169 17.6809 54.6934 17.275 54.2875C16.8691 53.8816 16.6456 53.3422 16.6456 52.7685C16.6456 52.1944 16.8691 51.655 17.275 51.2491C17.6805 50.8432 18.2203 50.62 18.794 50.62C19.3678 50.62 19.9072 50.8436 20.313 51.2491C20.7189 51.655 20.9425 52.1944 20.9425 52.7685C20.9425 53.3422 20.7189 53.8816 20.313 54.2875Z" fill="white"/>
<path d="M54.6194 19.5054C55.681 17.9128 55.5105 15.7353 54.1063 14.3311C53.3315 13.5567 52.3015 13.1299 51.206 13.1299C50.1104 13.1299 49.0804 13.5567 48.3056 14.3311C47.5309 15.1059 47.1044 16.1359 47.1044 17.2314C47.1044 18.327 47.5309 19.357 48.3056 20.1318C49.0804 20.9065 50.1104 21.333 51.206 21.333C51.906 21.333 52.5789 21.1583 53.1759 20.8302C56.3207 24.862 58.0469 29.8695 58.0469 34.9999C58.0469 47.7082 47.7083 58.0468 35 58.0468C33.4703 58.0468 31.9406 57.8961 30.454 57.5986C29.9253 57.4929 29.4107 57.8358 29.3046 58.3646C29.199 58.8937 29.5419 59.4079 30.0706 59.5139C31.6831 59.8363 33.3417 59.9999 35 59.9999C41.6776 59.9999 47.9558 57.3994 52.6777 52.6776C57.3995 47.9558 60 41.6776 60 34.9999C60 29.3824 58.0923 23.9003 54.6194 19.5054ZM49.687 18.7508C49.2811 18.345 49.0575 17.8056 49.0575 17.2314C49.0575 16.6577 49.2811 16.1183 49.687 15.7124C50.0925 15.3065 50.6322 15.083 51.206 15.083C51.7797 15.083 52.3195 15.3065 52.7254 15.7124C53.5627 16.5501 53.5627 17.9131 52.7254 18.7508C52.3195 19.1563 51.7797 19.3799 51.206 19.3799C50.6319 19.3799 50.0925 19.1563 49.687 18.7508Z" fill="white"/>
<path d="M30.9701 51.7969C30.9701 52.3363 31.4076 52.7734 31.9467 52.7734H38.0528C38.5922 52.7734 39.0294 52.3363 39.0294 51.7969V49.9036C40.3134 49.558 41.541 49.0491 42.6946 48.3846L44.0312 49.7213C44.2143 49.9044 44.4627 50.0074 44.7221 50.0074C44.9807 50.0074 45.2294 49.9044 45.4125 49.7209L49.7285 45.4019C50.1096 45.0204 50.1096 44.4021 49.7285 44.021L48.3933 42.6859C49.0579 41.5323 49.5667 40.3047 49.9124 39.0207H51.7983C52.3377 39.0207 52.7749 38.5835 52.7749 38.0441V31.9379C52.7749 31.3985 52.3377 30.9614 51.7983 30.9614H49.912C49.5664 29.6777 49.0579 28.4502 48.3933 27.2966L49.7212 25.9687C49.9043 25.7856 50.0073 25.5369 50.0073 25.2779C50.007 25.0188 49.904 24.7701 49.7209 24.587L45.4015 20.2711C45.0204 19.89 44.402 19.89 44.0206 20.2715L42.6946 21.5978C41.541 20.9333 40.3134 20.4244 39.0294 20.0788V18.2031C39.0294 17.6637 38.5922 17.2266 38.0528 17.2266H31.9467C31.4076 17.2266 30.9701 17.6637 30.9701 18.2031V20.0792C29.6864 20.4244 28.4589 20.9333 27.3053 21.5978L25.9789 20.2715C25.5979 19.8904 24.9795 19.89 24.598 20.2711L20.279 24.5874C20.0955 24.7705 19.9925 25.0188 19.9925 25.2779C19.9925 25.5369 20.0955 25.7856 20.2786 25.9687L21.6065 27.2966C20.942 28.4502 20.4331 29.6774 20.0875 30.9614H18.205C17.6656 30.9614 17.2284 31.3985 17.2284 31.9376L17.225 38.0437C17.2246 38.3028 17.3276 38.5515 17.5107 38.7346C17.6938 38.9177 17.9421 39.0207 18.2015 39.0207H20.0875C20.4331 40.3047 20.942 41.5323 21.6065 42.6859L20.2714 44.021C19.8903 44.4021 19.8899 45.0204 20.2714 45.4019L24.5873 49.7209C24.7704 49.904 25.0188 50.0074 25.2778 50.0074H25.2782C25.5372 50.0074 25.7855 49.9044 25.9686 49.7213L27.3049 48.3846C28.4589 49.0491 29.6864 49.558 30.9701 49.9036V51.7969ZM27.6879 46.3308C27.3015 46.0809 26.793 46.1351 26.4672 46.4605L25.2782 47.6495L22.3428 44.7118L23.5307 43.5236C23.8561 43.1982 23.9102 42.6897 23.6604 42.3032C22.775 40.933 22.1524 39.4312 21.8106 37.8389C21.7137 37.3891 21.3162 37.0676 20.8558 37.0676H19.1785L19.1808 32.9145H20.8558C21.3162 32.9145 21.7137 32.5933 21.8106 32.1432C22.1524 30.5513 22.775 29.0495 23.6604 27.6792C23.9102 27.2928 23.8561 26.7843 23.5307 26.4589L22.3504 25.2782L25.2881 22.3428L26.4672 23.5223C26.793 23.8477 27.3011 23.9015 27.6879 23.652C29.0578 22.7666 30.5596 22.1441 32.1519 21.8023C32.6016 21.7054 32.9232 21.3075 32.9232 20.8475V19.1797H37.0763V20.8471C37.0763 21.3075 37.3975 21.7054 37.8476 21.8019C39.4395 22.1441 40.9417 22.7663 42.3116 23.6517C42.698 23.9015 43.2065 23.8477 43.5319 23.522L44.7114 22.3428L47.6491 25.2782L46.4688 26.4585C46.1431 26.7843 46.0893 27.2928 46.3391 27.6792C47.2245 29.0495 47.8467 30.5513 48.1889 32.1432C48.2854 32.5933 48.6833 32.9145 49.1437 32.9145H50.8218V37.0676H49.1437C48.6833 37.0676 48.2858 37.3891 48.1889 37.8389C47.8471 39.4308 47.2245 40.933 46.3391 42.3029C46.0893 42.6897 46.1434 43.1982 46.4688 43.5236L47.6567 44.7115L44.7213 47.6492L43.5323 46.4605C43.2065 46.1347 42.698 46.0809 42.3116 46.3308C40.9413 47.2162 39.4395 47.8384 37.8476 48.1805C37.3975 48.2774 37.0763 48.6749 37.0763 49.1354V50.8203H32.9232V49.1354C32.9232 48.6753 32.6016 48.2774 32.1519 48.1805C30.56 47.8387 29.0582 47.2162 27.6879 46.3308Z" fill="white"/>
<path d="M43.0692 34.9999C43.0692 30.5504 39.4495 26.9307 35 26.9307C30.5506 26.9307 26.9308 30.5504 26.9308 34.9999C26.9308 39.4494 30.5506 43.0691 35 43.0691C39.4495 43.0691 43.0692 39.4494 43.0692 34.9999ZM28.8839 34.9999C28.8839 31.6273 31.6274 28.8838 35 28.8838C38.3726 28.8838 41.1161 31.6277 41.1161 34.9999C41.1161 38.3721 38.3726 41.116 35 41.116C31.6274 41.116 28.8839 38.3725 28.8839 34.9999Z" fill="white"/>
<path d="M43.9919 13.6933C44.2491 13.6933 44.5008 13.5888 44.6824 13.4072C44.864 13.2245 44.9685 12.9727 44.9685 12.7156C44.9685 12.46 44.8644 12.2078 44.6824 12.0251C44.5008 11.8435 44.2491 11.739 43.9919 11.739C43.7341 11.739 43.4834 11.8435 43.3019 12.0251C43.1199 12.2078 43.0154 12.4588 43.0154 12.7156C43.0154 12.9734 43.1199 13.2245 43.3019 13.4072C43.4834 13.5888 43.7341 13.6933 43.9919 13.6933Z" fill="white"/>
</svg>
