<svg width="120" height="120" viewBox="0 0 120 120" fill="none" xmlns="http://www.w3.org/2000/svg">
<g filter="url(#filter0_d)">
<rect x="25" y="20" width="70" height="70" rx="15" fill="#41883E"/>
</g>
<g clip-path="url(#clip0)">
<path d="M82.9036 57.3096C82.4547 52.7941 80.4374 48.5371 77.2231 45.3227C74.4761 42.5759 71.114 40.8107 67.5762 40.0259V37.5446C69.0212 37.1851 70.0952 35.8772 70.0952 34.3226C70.0952 32.4917 68.6057 31.0022 66.7748 31.0022H59.7435C57.9126 31.0022 56.4231 32.4917 56.4231 34.3226C56.4231 35.8771 57.4972 37.185 58.942 37.5446V40.0328C55.4151 40.821 52.0641 42.5837 49.325 45.3228C48.7255 45.9223 48.1728 46.5511 47.6668 47.2046C47.6423 47.2027 47.6178 47.2009 47.5928 47.2009H40.6336C40.0943 47.2009 39.657 47.6381 39.657 48.1775C39.657 48.7168 40.0943 49.154 40.6336 49.154H46.338C45.622 50.3528 45.0446 51.6117 44.6052 52.9076H33.9766C33.4373 52.9076 33 53.3448 33 53.8842C33 54.4236 33.4373 54.8608 33.9766 54.8608H44.0533C43.7718 56.0962 43.6103 57.3536 43.5686 58.6144H39.2501C38.7108 58.6144 38.2735 59.0517 38.2735 59.591C38.2735 60.1304 38.7108 60.5676 39.2501 60.5676H43.5998C43.6822 61.8317 43.8854 63.0891 44.2095 64.3213H37.8829C37.3436 64.3213 36.9063 64.7585 36.9063 65.2978C36.9063 65.8372 37.3436 66.2744 37.8829 66.2744H44.8328C45.7908 68.8087 47.288 71.1841 49.325 73.221C52.5424 76.4384 56.8038 78.4563 61.324 78.9028C61.9691 78.9665 62.6147 78.9981 63.2595 78.9981C67.0703 78.9981 70.8326 77.8952 74.0251 75.8163C74.477 75.5219 74.6049 74.9169 74.3105 74.465C74.0162 74.013 73.4112 73.8852 72.9592 74.1795C65.9711 78.7301 56.6123 77.7462 50.706 71.8399C43.776 64.91 43.776 53.6341 50.706 46.704C57.6359 39.7741 68.9118 39.7741 75.8419 46.704C81.7403 52.6025 82.7296 61.9534 78.1941 68.938C77.9003 69.3904 78.0289 69.9953 78.4812 70.2889C78.9337 70.5827 79.5384 70.4541 79.8321 70.0017C82.2554 66.2697 83.3462 61.7623 82.9036 57.3096ZM58.3763 34.3227C58.3763 33.5687 58.9896 32.9555 59.7435 32.9555H66.7748C67.5288 32.9555 68.1421 33.5687 68.1421 34.3227C68.1421 35.0766 67.5288 35.6899 66.7748 35.6899H66.5996H59.9186H59.7435C58.9896 35.6899 58.3763 35.0765 58.3763 34.3227ZM60.8952 39.6971V37.643H65.6231V39.6935C64.0531 39.5068 62.4648 39.508 60.8952 39.6971Z" fill="white"/>
<path d="M76.5328 71.5535C76.275 71.5535 76.024 71.658 75.8425 71.8396C75.6599 72.0212 75.5563 72.2732 75.5563 72.53C75.5563 72.7869 75.6599 73.0388 75.8425 73.2205C76.024 73.4031 76.2751 73.5066 76.5328 73.5066C76.7897 73.5066 77.0407 73.4031 77.2233 73.2205C77.4049 73.0388 77.5094 72.7869 77.5094 72.53C77.5094 72.2732 77.405 72.0212 77.2233 71.8396C77.0407 71.658 76.7896 71.5535 76.5328 71.5535Z" fill="white"/>
<path d="M63.2741 44.1223C54.9206 44.1223 48.1245 50.9183 48.1245 59.2718C48.1245 67.6254 54.9206 74.4214 63.2741 74.4214C71.6275 74.4214 78.4236 67.6254 78.4236 59.2718C78.4236 50.9183 71.6275 44.1223 63.2741 44.1223ZM63.2741 72.4682C55.9975 72.4682 50.0777 66.5483 50.0777 59.2718C50.0777 51.9953 55.9975 46.0754 63.2741 46.0754C70.5506 46.0754 76.4705 51.9953 76.4705 59.2718C76.4705 66.5483 70.5506 72.4682 63.2741 72.4682Z" fill="white"/>
<path d="M69.4514 51.7133L64.6144 56.5502C64.2099 56.3502 63.7549 56.2372 63.274 56.2372C62.7929 56.2372 62.338 56.3502 61.9335 56.5502L59.7688 54.3854C59.3873 54.004 58.7691 54.004 58.3876 54.3854C58.0062 54.7667 58.0062 55.3851 58.3876 55.7665L60.5524 57.9312C60.3523 58.3357 60.2394 58.7907 60.2394 59.2717C60.2394 60.945 61.6006 62.3063 63.274 62.3063C64.9473 62.3063 66.3086 60.945 66.3086 59.2717C66.3086 58.7907 66.1956 58.3357 65.9956 57.9312L70.6906 53.2362L70.8325 53.0943C71.2138 52.713 71.2138 52.0946 70.8325 51.7133C70.4511 51.3319 69.833 51.3319 69.4514 51.7133ZM63.274 60.3532C62.6777 60.3532 62.1925 59.8681 62.1925 59.2718C62.1925 58.6755 62.6777 58.1903 63.274 58.1903C63.8703 58.1903 64.3554 58.6755 64.3554 59.2718C64.3554 59.8681 63.8703 60.3532 63.274 60.3532Z" fill="white"/>
<path d="M73.7155 58.3071H72.8107C72.2714 58.3071 71.8341 58.7443 71.8341 59.2837C71.8341 59.823 72.2714 60.2603 72.8107 60.2603H73.7155C74.2547 60.2603 74.692 59.823 74.692 59.2837C74.692 58.7443 74.2547 58.3071 73.7155 58.3071Z" fill="white"/>
<path d="M53.7373 58.2833H52.8326C52.2933 58.2833 51.856 58.7205 51.856 59.2599C51.856 59.7992 52.2933 60.2365 52.8326 60.2365H53.7373C54.2765 60.2365 54.7138 59.7992 54.7138 59.2599C54.7138 58.7205 54.2765 58.2833 53.7373 58.2833Z" fill="white"/>
<path d="M63.2859 50.7116C63.8251 50.7116 64.2625 50.2744 64.2625 49.735V48.8303C64.2625 48.291 63.8251 47.8538 63.2859 47.8538C62.7466 47.8538 62.3093 48.291 62.3093 48.8303V49.735C62.3093 50.2744 62.7466 50.7116 63.2859 50.7116Z" fill="white"/>
<path d="M63.2621 67.832C62.7228 67.832 62.2855 68.2692 62.2855 68.8085V69.7132C62.2855 70.2526 62.7228 70.6898 63.2621 70.6898C63.8013 70.6898 64.2386 70.2526 64.2386 69.7132V68.8085C64.2386 68.2692 63.8013 67.832 63.2621 67.832Z" fill="white"/>
<path d="M33.9766 64.3209C33.7197 64.3209 33.4678 64.4254 33.2861 64.6071C33.1045 64.7887 33 65.0406 33 65.2975C33 65.5553 33.1044 65.8063 33.2861 65.9879C33.4679 66.1696 33.7197 66.274 33.9766 66.274C34.2334 66.274 34.4854 66.1696 34.6669 65.9879C34.8485 65.8063 34.9531 65.5543 34.9531 65.2975C34.9531 65.0406 34.8486 64.7887 34.6669 64.6071C34.4854 64.4254 34.2334 64.3209 33.9766 64.3209Z" fill="white"/>
</g>
<defs>
<filter id="filter0_d" x="0" y="0" width="120" height="120" filterUnits="userSpaceOnUse" color-interpolation-filters="sRGB">
<feFlood flood-opacity="0" result="BackgroundImageFix"/>
<feColorMatrix in="SourceAlpha" type="matrix" values="0 0 0 0 0 0 0 0 0 0 0 0 0 0 0 0 0 0 127 0" result="hardAlpha"/>
<feOffset dy="5"/>
<feGaussianBlur stdDeviation="12.5"/>
<feComposite in2="hardAlpha" operator="out"/>
<feColorMatrix type="matrix" values="0 0 0 0 0 0 0 0 0 0 0 0 0 0 0 0 0 0 0.07 0"/>
<feBlend mode="normal" in2="BackgroundImageFix" result="effect1_dropShadow"/>
<feBlend mode="normal" in="SourceGraphic" in2="effect1_dropShadow" result="shape"/>
</filter>
<clipPath id="clip0">
<rect width="50" height="50" fill="white" transform="translate(33 30)"/>
</clipPath>
</defs>
</svg>
