<svg width="70" height="70" viewBox="0 0 70 70" fill="none" xmlns="http://www.w3.org/2000/svg">
<rect width="70" height="70" rx="10" fill="#41883E"/>
<path d="M15.8307 14.187C15.8307 14.647 15.4578 15.0199 14.9978 15.0199C14.5378 15.0199 14.1648 14.647 14.1648 14.187C14.1648 13.727 14.5378 13.354 14.9978 13.354C15.4578 13.354 15.8307 13.727 15.8307 14.187Z" fill="white"/>
<path d="M19.1626 14.187C19.1626 14.647 18.7897 15.0199 18.3297 15.0199C17.8697 15.0199 17.4967 14.647 17.4967 14.187C17.4967 13.727 17.8697 13.354 18.3297 13.354C18.7897 13.354 19.1626 13.727 19.1626 14.187Z" fill="white"/>
<path d="M22.4945 14.187C22.4945 14.647 22.1216 15.0199 21.6616 15.0199C21.2016 15.0199 20.8286 14.647 20.8286 14.187C20.8286 13.727 21.2016 13.354 21.6616 13.354C22.1216 13.354 22.4945 13.727 22.4945 14.187Z" fill="white"/>
<path d="M27.4924 13.354C27.0324 13.354 26.6594 13.727 26.6594 14.187C26.6594 14.647 27.0324 15.0199 27.4924 15.0199H48.3166C48.7766 15.0199 49.1496 14.647 49.1496 14.187C49.1496 13.727 48.7766 13.354 48.3166 13.354H27.4924Z" fill="white"/>
<path d="M22.0113 50.8374H11.6659V18.3516H48.3165C48.7765 18.3516 49.1495 17.9787 49.1495 17.5187C49.1495 17.0587 48.7765 16.6857 48.3165 16.6857H11.6659V11.6879H50.8154V22.0333C50.8154 22.4933 51.1884 22.8663 51.6484 22.8663C52.1084 22.8663 52.4813 22.4933 52.4813 22.0333V10.8549C52.4813 10.3949 52.1084 10.022 51.6484 10.022H10.833C10.373 10.022 10 10.3949 10 10.8549V51.6703C10 52.1303 10.373 52.5033 10.833 52.5033H22.0113C22.4713 52.5033 22.8443 52.1303 22.8443 51.6703C22.8443 51.2103 22.4713 50.8374 22.0113 50.8374Z" fill="white"/>
<path d="M59.7364 56.2184L55.1551 51.6704L57.8375 49.8796C58.1136 49.6991 58.2576 49.3725 58.2039 49.0467C58.1482 48.7221 57.9066 48.461 57.5873 48.3801L46.4008 45.4065C46.1145 45.3321 45.8107 45.4147 45.6016 45.6237C45.3926 45.8328 45.31 46.1366 45.3844 46.4229L48.3165 57.6094C48.3974 57.9287 48.6585 58.1703 48.9827 58.226C49.3085 58.2797 49.6355 58.1357 49.8157 57.8595L51.6484 55.1772L56.2297 59.7585C56.3867 59.9143 56.5998 60.0013 56.8211 60.0001C57.0423 60.0013 57.2554 59.9143 57.4124 59.7585L59.7698 57.4012C59.9231 57.2405 60.0061 57.0249 59.9996 56.8029C59.9935 56.5808 59.8987 56.3705 59.7364 56.2184ZM56.7877 57.9925L52.073 53.2782C51.918 53.1241 51.7086 53.0374 51.4901 53.0366H51.4068C51.1595 53.0618 50.9366 53.1961 50.7987 53.4031L49.4659 55.394L47.3587 47.3808L55.3719 49.488L53.381 50.8375C53.174 50.9754 53.0398 51.1982 53.0145 51.4455C52.9918 51.6924 53.0804 51.9368 53.2561 52.1117L57.9705 56.8265L56.7877 57.9925Z" fill="white"/>
<path d="M44.6182 53.7609C42.8807 54.4824 41.0326 54.9022 39.1539 55.0022V47.5055C40.3855 47.5344 41.6146 47.6316 42.8356 47.7971C43.2956 47.8614 43.721 47.5409 43.7852 47.0809C43.8495 46.6205 43.529 46.1954 43.069 46.1312C41.7703 45.9612 40.4631 45.864 39.1539 45.8396V39.1758H47.4836C47.4413 40.4822 47.3136 41.7845 47.1004 43.0743C47.0244 43.5343 47.3359 43.9686 47.7959 44.0447C48.2559 44.1203 48.6903 43.8092 48.7664 43.3488C48.9876 41.968 49.1158 40.5737 49.1495 39.1758H54.9803C54.8937 41.052 54.4882 42.8998 53.7809 44.6401C53.6084 45.0631 53.8089 45.5467 54.2307 45.7228C54.3307 45.7655 54.4381 45.7883 54.5471 45.7895C54.8884 45.7899 55.1954 45.5821 55.3219 45.2649C56.2114 43.0661 56.6613 40.7145 56.6462 38.3429C56.6483 34.043 55.132 29.8806 52.3647 26.5898C48.8868 22.429 43.7442 20.0225 38.3209 20.0176H37.721C33.6762 20.1502 29.7875 21.6144 26.6594 24.1824C26.3027 24.4744 26.2506 25.0003 26.5427 25.357C26.8351 25.7133 27.3606 25.7658 27.7173 25.4734C29.1644 24.2829 30.7998 23.3425 32.5569 22.6914C31.1675 24.2032 30.0767 25.9639 29.3417 27.8807C27.9215 27.4777 26.5301 26.9799 25.1769 26.3897C24.8466 26.2502 24.4639 26.3372 24.2272 26.6065C24.2272 26.6065 24.1853 26.6065 24.1686 26.6565C21.4737 29.9449 20.0018 34.0662 20.0038 38.3181C20.0042 42.5781 21.4952 46.7034 24.2186 49.9796L24.2772 50.0459C27.7413 54.2311 32.8879 56.658 38.3209 56.6681C40.6954 56.6698 43.047 56.2057 45.2429 55.302C45.5366 55.2035 45.7513 54.9501 45.8002 54.6443C45.8494 54.3384 45.7245 54.0305 45.4764 53.8451C45.2283 53.6596 44.8976 53.6275 44.6182 53.7609ZM37.488 54.9274C34.8308 54.5023 32.4902 52.012 30.9824 48.3466C33.1165 47.8447 35.2965 47.5624 37.488 47.5055V54.9274ZM37.488 45.8396C35.0997 45.8888 32.7232 46.193 30.3996 46.7474C29.6321 44.2944 29.214 41.7455 29.1583 39.1758H37.488V45.8396ZM21.7031 39.1758H27.4924C27.5444 41.9005 27.9821 44.6035 28.7918 47.2057C27.5574 47.5661 26.345 47.9972 25.1602 48.4967C23.0794 45.8176 21.8727 42.5638 21.7031 39.1758ZM45.6094 28.3473C43.4912 28.8426 41.3282 29.1217 39.1539 29.1802V21.7669C41.7862 22.2082 44.1017 24.7071 45.6094 28.3473ZM37.488 37.5099H29.1583C29.2104 34.9309 29.6313 32.373 30.4077 29.9131C32.7277 30.4756 35.1013 30.7884 37.488 30.8462V37.5099ZM39.1539 30.8462C41.5227 30.7953 43.8792 30.4935 46.1841 29.9465C46.9577 32.3954 47.3782 34.9423 47.4335 37.5099H39.1539V30.8462ZM54.9803 37.5099H49.1495C49.0999 34.7885 48.6651 32.0879 47.8586 29.4885C49.1105 29.129 50.34 28.695 51.5402 28.189C53.6149 30.8702 54.8156 34.1239 54.9803 37.5099ZM50.399 26.8562C49.3826 27.265 48.3454 27.6208 47.292 27.9226C46.5615 25.9919 45.4642 24.2211 44.0602 22.708C46.4472 23.5943 48.6008 25.0129 50.3575 26.8562H50.399ZM37.488 21.7583V29.1802C35.2965 29.1257 33.1169 28.8467 30.9824 28.3473C32.4902 24.6737 34.8308 22.1834 37.488 21.7583ZM27.4924 37.5099H21.6616C21.8336 34.1251 23.0339 30.8738 25.1016 28.189C26.2893 28.6885 27.505 29.1196 28.7418 29.48C27.9475 32.0842 27.5269 34.7877 27.4924 37.5099ZM26.2844 49.8295C27.2849 49.4277 28.3054 49.0775 29.3417 48.7798C30.0742 50.6869 31.1594 52.439 32.5402 53.9443C30.1686 53.0674 28.0288 51.6598 26.2844 49.8295Z" fill="white"/>
<path d="M57.5459 30.3297C57.6736 30.6409 57.9758 30.8446 58.3121 30.8462C58.4216 30.8491 58.5297 30.8263 58.6286 30.7795C59.0504 30.603 59.2509 30.1198 59.0784 29.6969C58.221 27.6242 57.0525 25.6947 55.6131 23.9743C55.3077 23.701 54.8485 23.6908 54.5308 23.9499C54.2136 24.2094 54.1318 24.6616 54.3389 25.0155C55.6701 26.6147 56.7516 28.4067 57.5459 30.3297Z" fill="white"/>
<path d="M21.0201 23.9741C17.6666 28.0117 15.8311 33.0945 15.8307 38.3428C15.8307 38.8028 16.2037 39.1758 16.6637 39.1758C17.1237 39.1758 17.4966 38.8028 17.4966 38.3428C17.4917 33.4752 19.1922 28.7596 22.3029 25.0154C22.5973 24.6611 22.5489 24.1352 22.1947 23.8407C21.8404 23.5463 21.3145 23.5951 21.0201 23.9493V23.9741Z" fill="white"/>
</svg>
