<svg width="24" height="18" viewBox="0 0 24 18" fill="none" xmlns="http://www.w3.org/2000/svg">
<path d="M12.0765 0.998047H12.21C13.443 1.00255 19.6905 1.04755 21.375 1.50055C21.8842 1.6388 22.3483 1.90828 22.7207 2.28206C23.0932 2.65584 23.361 3.12082 23.4975 3.63055C23.649 4.20055 23.7555 4.95505 23.8275 5.73355L23.8425 5.88955L23.8755 6.27955L23.8875 6.43555C23.985 7.80655 23.997 9.09055 23.9985 9.37105V9.48355C23.997 9.77455 23.9835 11.1455 23.8755 12.5735L23.8635 12.731L23.85 12.887C23.775 13.745 23.664 14.597 23.4975 15.224C23.3615 15.734 23.0938 16.1992 22.7212 16.573C22.3487 16.9469 21.8844 17.2162 21.375 17.354C19.635 17.822 13.0215 17.855 12.105 17.8565H11.892C11.4285 17.8565 9.5115 17.8475 7.5015 17.7785L7.2465 17.7695L7.116 17.7635L6.8595 17.753L6.603 17.7425C4.938 17.669 3.3525 17.5505 2.622 17.3525C2.11273 17.2148 1.6486 16.9457 1.27609 16.5722C0.903575 16.1986 0.63577 15.7337 0.4995 15.224C0.333 14.5985 0.222 13.745 0.147 12.887L0.135 12.7295L0.123 12.5735C0.0489714 11.5571 0.0079498 10.5386 0 9.51955L0 9.33505C0.003 9.01255 0.015 7.89805 0.096 6.66805L0.1065 6.51355L0.111 6.43555L0.123 6.27955L0.156 5.88955L0.171 5.73355C0.243 4.95505 0.3495 4.19905 0.501 3.63055C0.63704 3.12062 0.904743 2.65541 1.27727 2.28157C1.6498 1.90773 2.11405 1.63839 2.6235 1.50055C3.354 1.30555 4.9395 1.18555 6.6045 1.11055L6.8595 1.10005L7.1175 1.09105L7.2465 1.08655L7.503 1.07605C8.93056 1.03011 10.3587 1.00461 11.787 0.999547H12.0765V0.998047ZM9.6 5.81305V13.04L15.8355 9.42805L9.6 5.81305Z" fill="#E1591A"/>
</svg>
