<svg width="60" height="60" viewBox="0 0 60 60" fill="#41883E" xmlns="http://www.w3.org/2000/svg">
<path d="M21.5625 39.375H19.6875V41.25H21.5625V39.375Z"/>
<path d="M25.3125 39.375H23.4375V41.25H25.3125V39.375Z"/>
<path d="M29.0625 39.375H27.1875V41.25H29.0625V39.375Z"/>
<path d="M12.1875 24.375C12.1864 25.2768 12.3736 26.169 12.7369 26.9944L14.4544 26.2444C14.1949 25.6554 14.0615 25.0186 14.0625 24.375C14.064 23.1323 14.5583 21.9408 15.4371 21.0621C16.3158 20.1833 17.5073 19.689 18.75 19.6875V17.8125C17.0101 17.8145 15.3421 18.5065 14.1118 19.7368C12.8815 20.9671 12.1895 22.6351 12.1875 24.375Z"/>
<path d="M5.625 34.6875H7.5C7.5 34.1902 7.69754 33.7133 8.04918 33.3617C8.40081 33.01 8.87772 32.8125 9.375 32.8125V30.9375C8.38044 30.9375 7.42661 31.3326 6.72335 32.0359C6.02009 32.7391 5.625 33.6929 5.625 34.6875Z"/>
<path d="M58.1249 13.125V9.375C58.1248 9.16588 58.0548 8.96278 57.9261 8.798C57.7973 8.63323 57.6172 8.51623 57.4142 8.46562L56.203 8.16281L56.8461 7.09219C56.9537 6.91281 56.9982 6.7026 56.9726 6.495C56.9469 6.28741 56.8526 6.09436 56.7046 5.94656L54.0533 3.29531C53.9056 3.14752 53.7127 3.05331 53.5053 3.02766C53.2979 3.00202 53.0879 3.04639 52.9086 3.15375L51.8371 3.79688L51.5342 2.58469C51.4835 2.38196 51.3664 2.20201 51.2016 2.07343C51.0369 1.94485 50.8339 1.87501 50.6249 1.875H46.8749C46.6659 1.87501 46.4629 1.94485 46.2981 2.07343C46.1334 2.20201 46.0163 2.38196 45.9655 2.58469L45.6627 3.79688L44.5911 3.15375C44.4118 3.04639 44.2018 3.00202 43.9944 3.02766C43.787 3.05331 43.5942 3.14752 43.4464 3.29531L40.7952 5.94656C40.6472 6.09436 40.5528 6.28741 40.5272 6.495C40.5015 6.7026 40.546 6.91281 40.6536 7.09219L41.0614 7.77094C40.1982 7.59192 39.319 7.50114 38.4374 7.5C35.6084 7.51156 32.8582 8.43319 30.5935 10.1286C28.3288 11.824 26.6698 14.2032 25.8617 16.9144C24.2231 15.3556 22.1176 14.3787 19.8692 14.1342C17.6209 13.8896 15.3545 14.3909 13.4191 15.5609C11.4837 16.7309 9.98649 18.5046 9.15814 20.6091C8.3298 22.7135 8.21621 25.0319 8.83487 27.2072C6.89816 27.3478 5.09146 28.2341 3.79486 29.6796C2.49827 31.1251 1.81285 33.0171 1.8828 34.9577C1.95275 36.8982 2.77262 38.736 4.16993 40.0844C5.56724 41.4328 7.43306 42.1867 9.37487 42.1875H15.9374V55.3125C15.9374 56.0584 16.2337 56.7738 16.7611 57.3012C17.2886 57.8287 18.004 58.125 18.7499 58.125H41.2499C41.9958 58.125 42.7112 57.8287 43.2386 57.3012C43.7661 56.7738 44.0624 56.0584 44.0624 55.3125V42.1875H50.6249C52.614 42.1875 54.5216 41.3973 55.9282 39.9908C57.3347 38.5843 58.1249 36.6766 58.1249 34.6875C58.1249 32.6984 57.3347 30.7907 55.9282 29.3842C54.5216 27.9777 52.614 27.1875 50.6249 27.1875H49.7952C50.9583 25.1965 51.5684 22.9309 51.5624 20.625C51.5624 20.3841 51.5474 20.1506 51.5342 19.9153L51.8371 18.7031L52.9086 19.3463C53.0879 19.4536 53.2979 19.498 53.5053 19.4723C53.7127 19.4467 53.9056 19.3525 54.0533 19.2047L56.7046 16.5534C56.8526 16.4056 56.9469 16.2126 56.9726 16.005C56.9982 15.7974 56.9537 15.5872 56.8461 15.4078L56.203 14.3372L57.4142 14.0344C57.6172 13.9838 57.7973 13.8668 57.9261 13.702C58.0548 13.5372 58.1248 13.3341 58.1249 13.125ZM42.1874 43.125H17.8124V38.4375C17.8124 38.1889 17.9111 37.9504 18.087 37.7746C18.2628 37.5988 18.5012 37.5 18.7499 37.5H29.7786C29.9527 37.5001 30.1233 37.5486 30.2713 37.6402C30.4193 37.7318 30.5389 37.8627 30.6167 38.0184L31.4558 39.6956C31.688 40.1639 32.0466 40.5577 32.4912 40.8324C32.9358 41.1072 33.4485 41.2518 33.9711 41.25H41.2499C41.4985 41.25 41.737 41.3488 41.9128 41.5246C42.0886 41.7004 42.1874 41.9389 42.1874 42.1875V43.125ZM41.2499 56.25H18.7499C18.5012 56.25 18.2628 56.1512 18.087 55.9754C17.9111 55.7996 17.8124 55.5611 17.8124 55.3125V45H42.1874V55.3125C42.1874 55.5611 42.0886 55.7996 41.9128 55.9754C41.737 56.1512 41.4985 56.25 41.2499 56.25ZM50.6249 29.0625C52.1167 29.0625 53.5475 29.6551 54.6023 30.71C55.6572 31.7649 56.2499 33.1957 56.2499 34.6875C56.2499 36.1793 55.6572 37.6101 54.6023 38.665C53.5475 39.7199 52.1167 40.3125 50.6249 40.3125H43.3311C43.0696 40.0188 42.749 39.7834 42.3904 39.6219C42.0318 39.4604 41.6432 39.3762 41.2499 39.375H33.9711C33.7971 39.3749 33.6265 39.3264 33.4784 39.2348C33.3304 39.1432 33.2108 39.0123 33.133 38.8566L32.2939 37.1794C32.0618 36.7111 31.7031 36.3173 31.2585 36.0426C30.8139 35.7678 30.3012 35.6232 29.7786 35.625H18.7499C18.004 35.625 17.2886 35.9213 16.7611 36.4488C16.2337 36.9762 15.9374 37.6916 15.9374 38.4375V40.3125H9.37487C7.88303 40.3125 6.45229 39.7199 5.3974 38.665C4.34251 37.6101 3.74987 36.1793 3.74987 34.6875C3.74987 33.1957 4.34251 31.7649 5.3974 30.71C6.45229 29.6551 7.88303 29.0625 9.37487 29.0625H10.1624C10.318 29.0624 10.4712 29.0236 10.608 28.9495C10.7449 28.8755 10.8612 28.7685 10.9464 28.6383C11.0316 28.5081 11.083 28.3587 11.0961 28.2036C11.1091 28.0485 11.0834 27.8926 11.0211 27.75C10.552 26.6868 10.3106 25.5371 10.3124 24.375C10.3142 22.5879 10.8834 20.8475 11.9379 19.4047C12.9925 17.9619 14.4779 16.8912 16.1801 16.347C17.8823 15.8027 19.7134 15.8129 21.4094 16.3762C23.1054 16.9395 24.5787 18.0267 25.6171 19.4813C25.7264 19.6325 25.8784 19.7477 26.0536 19.812C26.2287 19.8764 26.4191 19.887 26.6004 19.8424C26.7816 19.7979 26.9455 19.7004 27.0709 19.5622C27.1964 19.424 27.2777 19.2516 27.3046 19.0669C27.6873 16.3838 29.0227 13.9281 31.0668 12.1486C33.111 10.3691 35.7272 9.38454 38.4374 9.375C38.7533 9.375 39.0655 9.39094 39.3749 9.41625V13.125C39.3749 13.3341 39.4449 13.5372 39.5737 13.702C39.7024 13.8668 39.8826 13.9838 40.0855 14.0344L41.2967 14.3372L40.6536 15.4078C40.546 15.5872 40.5015 15.7974 40.5272 16.005C40.5528 16.2126 40.6472 16.4056 40.7952 16.5534L43.4464 19.2047C43.5942 19.3525 43.787 19.4467 43.9944 19.4723C44.2018 19.498 44.4118 19.4536 44.5911 19.3463L45.6627 18.7031L45.9655 19.9153C46.0163 20.118 46.1334 20.298 46.2981 20.4266C46.4629 20.5552 46.6659 20.625 46.8749 20.625H49.6874C49.6918 23.1368 48.8471 25.5764 47.2902 27.5475C47.182 27.6859 47.1148 27.8519 47.0964 28.0265C47.0779 28.2012 47.1089 28.3776 47.1858 28.5355C47.2627 28.6934 47.3825 28.8265 47.5314 28.9197C47.6803 29.0129 47.8523 29.0624 48.028 29.0625H50.6249ZM56.2499 12.3928L54.5211 12.825C54.379 12.8605 54.2471 12.9288 54.1362 13.0245C54.0252 13.1201 53.9382 13.2405 53.8821 13.3758C53.8261 13.5112 53.8025 13.6578 53.8134 13.8039C53.8242 13.95 53.8691 14.0916 53.9446 14.2172L54.8624 15.7453L53.2499 17.3616L51.7217 16.4447C51.5962 16.3695 51.4547 16.3247 51.3087 16.3139C51.1627 16.3032 51.0163 16.3268 50.881 16.3828C50.7458 16.4389 50.6255 16.5258 50.5299 16.6367C50.4344 16.7475 50.366 16.8792 50.3305 17.0212L49.8927 18.75H47.6071L47.1739 17.0212C47.1384 16.8792 47.0701 16.7475 46.9745 16.6367C46.8789 16.5258 46.7586 16.4389 46.6234 16.3828C46.4882 16.3268 46.3417 16.3032 46.1957 16.3139C46.0497 16.3247 45.9083 16.3695 45.7827 16.4447L44.2546 17.3616L42.6374 15.75L43.5552 14.2219C43.6306 14.0963 43.6755 13.9547 43.6864 13.8086C43.6972 13.6625 43.6737 13.5159 43.6176 13.3805C43.5616 13.2452 43.4746 13.1248 43.3636 13.0292C43.2526 12.9335 43.1208 12.8652 42.9786 12.8297L41.2499 12.3928V10.1072L42.9786 9.675C43.1208 9.6395 43.2526 9.57118 43.3636 9.47551C43.4746 9.37985 43.5616 9.25951 43.6176 9.12415C43.6737 8.98879 43.6972 8.84217 43.6864 8.69606C43.6755 8.54995 43.6306 8.40842 43.5552 8.28281L42.6374 6.75469L44.2546 5.13844L45.7827 6.05531C45.9083 6.13055 46.0497 6.17533 46.1957 6.18607C46.3417 6.19681 46.4882 6.17321 46.6234 6.11717C46.7586 6.06112 46.8789 5.97419 46.9745 5.86333C47.0701 5.75247 47.1384 5.62076 47.1739 5.47875L47.6071 3.75H49.8927L50.3258 5.47875C50.3614 5.62076 50.4297 5.75247 50.5253 5.86333C50.6209 5.97419 50.7411 6.06112 50.8763 6.11717C51.0116 6.17321 51.158 6.19681 51.304 6.18607C51.45 6.17533 51.5915 6.13055 51.7171 6.05531L53.2452 5.13844L54.8624 6.75469L53.9446 8.28281C53.8691 8.40842 53.8242 8.54995 53.8134 8.69606C53.8025 8.84217 53.8261 8.98879 53.8821 9.12415C53.9382 9.25951 54.0252 9.37985 54.1362 9.47551C54.2471 9.57118 54.379 9.6395 54.5211 9.675L56.2499 10.1072V12.3928Z"/>
<path d="M48.75 7.5C48.0083 7.5 47.2833 7.71993 46.6666 8.13199C46.0499 8.54404 45.5693 9.12971 45.2855 9.81494C45.0016 10.5002 44.9274 11.2542 45.0721 11.9816C45.2168 12.709 45.5739 13.3772 46.0984 13.9017C46.6228 14.4261 47.291 14.7833 48.0184 14.9279C48.7458 15.0726 49.4999 14.9984 50.1851 14.7145C50.8703 14.4307 51.456 13.9501 51.868 13.3334C52.2801 12.7167 52.5 11.9917 52.5 11.25C52.5 10.2554 52.1049 9.30161 51.4017 8.59835C50.6984 7.89509 49.7446 7.5 48.75 7.5ZM48.75 13.125C48.3792 13.125 48.0167 13.015 47.7083 12.809C47.4 12.603 47.1596 12.3101 47.0177 11.9675C46.8758 11.6249 46.8387 11.2479 46.911 10.8842C46.9834 10.5205 47.162 10.1864 47.4242 9.92418C47.6864 9.66195 48.0205 9.48337 48.3842 9.41103C48.7479 9.33868 49.1249 9.37581 49.4675 9.51773C49.8102 9.65964 50.103 9.89996 50.309 10.2083C50.515 10.5166 50.625 10.8792 50.625 11.25C50.625 11.7473 50.4275 12.2242 50.0758 12.5758C49.7242 12.9275 49.2473 13.125 48.75 13.125Z"/>
<path d="M30.5625 20.8125C30.4002 20.6908 30.2028 20.625 30 20.625C29.7972 20.625 29.5998 20.6908 29.4375 20.8125L21.9375 26.4375C21.7801 26.5556 21.6638 26.7202 21.6051 26.908C21.5465 27.0958 21.5484 27.2973 21.6106 27.484C21.6728 27.6706 21.7922 27.833 21.9518 27.948C22.1115 28.0631 22.3032 28.125 22.5 28.125H26.25V32.8125C26.25 33.0611 26.3488 33.2996 26.5246 33.4754C26.7004 33.6512 26.9389 33.75 27.1875 33.75H32.8125C33.0611 33.75 33.2996 33.6512 33.4754 33.4754C33.6512 33.2996 33.75 33.0611 33.75 32.8125V28.125H37.5C37.6968 28.125 37.8885 28.0631 38.0482 27.948C38.2078 27.833 38.3272 27.6706 38.3894 27.484C38.4516 27.2973 38.4535 27.0958 38.3949 26.908C38.3362 26.7202 38.2199 26.5556 38.0625 26.4375L30.5625 20.8125ZM32.8125 26.25C32.5639 26.25 32.3254 26.3488 32.1496 26.5246C31.9738 26.7004 31.875 26.9389 31.875 27.1875V31.875H28.125V27.1875C28.125 26.9389 28.0262 26.7004 27.8504 26.5246C27.6746 26.3488 27.4361 26.25 27.1875 26.25H25.3125L30 22.7344L34.6875 26.25H32.8125Z"/>
</svg>
