<svg width="60" height="60" viewBox="0 0 60 60" fill="363636" xmlns="http://www.w3.org/2000/svg">
<path d="M24.8038 10.0313L24.335 8.21729C23.3867 8.46264 22.4556 8.7705 21.5479 9.13885L22.2538 10.876C23.0844 10.5391 23.9363 10.2569 24.8038 10.0313Z"/>
<path d="M49.5098 18.7861C49.0208 17.9396 48.4778 17.1254 47.8842 16.3486L46.3945 17.4839C46.9388 18.1972 47.4367 18.9447 47.8852 19.7218L49.5098 18.7861Z"/>
<path d="M18.4287 49.3002C19.2671 49.8035 20.1373 50.2517 21.034 50.6418L21.784 48.9224C20.9628 48.5648 20.1658 48.1539 19.3981 47.6924L18.4287 49.3002Z"/>
<path d="M10.134 24.433L8.3284 23.9277C8.06556 24.8706 7.8642 25.8294 7.72559 26.7984L9.58184 27.0637C9.70881 26.1758 9.89326 25.2971 10.134 24.433Z"/>
<path d="M15.5484 15.2811L14.2359 13.9424C13.5375 14.6291 12.8842 15.3603 12.2803 16.1314L13.7559 17.2864C14.3096 16.5801 14.9083 15.9102 15.5484 15.2811Z"/>
<path d="M45.9563 14.1369C45.2664 13.4437 44.5327 12.7955 43.7598 12.1963L42.6113 13.6794C43.3211 14.2285 43.9941 14.8235 44.626 15.4607L45.9563 14.1369Z"/>
<path d="M49.7959 35.8125L51.595 36.3403C51.8698 35.4011 52.0831 34.4451 52.2334 33.4781L50.3809 33.1875C50.243 34.0743 50.0476 34.9511 49.7959 35.8125Z"/>
<path d="M44.2666 44.8951L45.5622 46.2479C46.2681 45.5724 46.9298 44.8522 47.5432 44.0916L46.0816 42.916C45.5201 43.6143 44.9138 44.2754 44.2666 44.8951Z"/>
<path d="M29.9992 9.375H30.1332V7.5H29.9992C29.0681 7.50017 28.138 7.55715 27.2139 7.67063L27.4417 9.53063C28.2903 9.42728 29.1443 9.37531 29.9992 9.375Z"/>
<path d="M49.9329 24.6814L51.7442 24.1986C51.4927 23.2526 51.1795 22.3241 50.8067 21.4189L49.0732 22.1343C49.4152 22.9636 49.7024 23.8145 49.9329 24.6814Z"/>
<path d="M47.625 40.7139L49.2263 41.6898C49.7348 40.8547 50.1882 39.9872 50.5838 39.093L48.8691 38.3354C48.5065 39.1544 48.0909 39.9489 47.625 40.7139Z"/>
<path d="M30.0001 50.6251H29.6185L29.5801 52.5001H30.0001C30.8379 52.4996 31.675 52.4539 32.5079 52.3632L32.3035 50.4985C31.5386 50.5829 30.7696 50.6251 30.0001 50.6251Z"/>
<path d="M39.9434 48.0729L40.849 49.7154C41.7054 49.2424 42.5306 48.7147 43.3193 48.1358L42.2084 46.6245C41.4855 47.1558 40.7289 47.6396 39.9434 48.0729Z"/>
<path d="M50.4512 27.318C50.5669 28.2074 50.6248 29.1034 50.6246 30.0002C50.6246 30.1718 50.6246 30.3415 50.619 30.5121L52.494 30.5562C52.494 30.3687 52.5006 30.1812 52.5006 30.0002C52.5008 29.0225 52.4382 28.0458 52.3131 27.0762L50.4512 27.318Z"/>
<path d="M12.2408 19.5056L10.6274 18.5493C10.1295 19.3907 9.68672 20.2635 9.30176 21.1621L11.0258 21.8999C11.3782 21.0762 11.7841 20.2764 12.2408 19.5056Z"/>
<path d="M34.9463 50.0278L35.3954 51.8484C36.346 51.6145 37.2802 51.3182 38.1919 50.9616L37.5104 49.2188C36.6743 49.5442 35.8178 49.8145 34.9463 50.0278Z"/>
<path d="M19.832 12.0503L18.9067 10.4209C18.0562 10.9044 17.2376 11.4421 16.4561 12.0306L17.5811 13.5306C18.2988 12.9893 19.0506 12.4948 19.832 12.0503Z"/>
<path d="M23.7939 51.6338C24.7345 51.9023 25.6915 52.1096 26.6589 52.2545L26.9402 50.4001C26.0538 50.2669 25.177 50.0765 24.3152 49.8301L23.7939 51.6338Z"/>
<path d="M41.3301 10.5571C40.4847 10.0627 39.6078 9.62429 38.7051 9.24463L37.9785 10.9734C38.8041 11.3209 39.6064 11.7214 40.3804 12.1724L41.3301 10.5571Z"/>
<path d="M10.3516 40.9687C10.8293 41.8222 11.3617 42.6439 11.9453 43.4287L13.45 42.3103C12.9142 41.5903 12.4254 40.8366 11.9866 40.0537L10.3516 40.9687Z"/>
<path d="M13.8477 45.6644C14.529 46.3666 15.2549 47.0242 16.0208 47.6331L17.1861 46.1641C16.4836 45.6064 15.8181 45.0035 15.1939 44.3594L13.8477 45.6644Z"/>
<path d="M35.9362 8.29203C34.9925 8.03454 34.033 7.83912 33.0638 7.70703L32.8125 9.56234C33.7011 9.68301 34.5808 9.86183 35.4459 10.0977L35.9362 8.29203Z"/>
<path d="M9.375 30.0047V29.7422L7.5 29.7188V30C7.49986 30.8845 7.55151 31.7682 7.65469 32.6466L9.51656 32.4291C9.42259 31.6243 9.37532 30.8149 9.375 30.0047Z"/>
<path d="M10.0023 35.0708L8.18359 35.5302C8.42586 36.4795 8.72963 37.4121 9.09297 38.322L10.8358 37.6283C10.5021 36.795 10.2237 35.9407 10.0023 35.0708Z"/>
<path d="M57.4253 23.7412C57.0077 22.4562 56.2308 21.3176 55.1866 20.46C54.5824 19.9271 54.0658 19.3027 53.6556 18.6094C53.3602 17.8412 53.1878 17.0313 53.1447 16.2094C53.1227 14.8751 52.7218 13.5745 51.9888 12.4594C51.0631 11.493 49.8814 10.8101 48.5819 10.4906C47.7941 10.2682 47.0465 9.92268 46.3666 9.46687C45.776 8.9081 45.2771 8.25986 44.8881 7.54594C44.2883 6.34434 43.3581 5.33876 42.2069 4.64719C40.9631 4.18358 39.6131 4.08311 38.3144 4.3575C37.4974 4.50005 36.6629 4.51208 35.8422 4.39312C35.0823 4.15065 34.3654 3.78998 33.7178 3.32438C32.6396 2.5008 31.3508 1.9984 29.9997 1.875C28.6477 2.00086 27.3588 2.50622 26.2816 3.33281C25.634 3.79961 24.9171 4.16184 24.1572 4.40625C23.3363 4.5239 22.502 4.51156 21.685 4.36969C20.3862 4.09618 19.0365 4.19663 17.7925 4.65937C16.6405 5.35073 15.7099 6.35676 15.1103 7.55906C14.7216 8.27288 14.223 8.92111 13.6328 9.48C12.9527 9.93449 12.205 10.2787 11.4175 10.5C10.1181 10.8197 8.93642 11.5025 8.01063 12.4688C7.27757 13.5839 6.87667 14.8844 6.85469 16.2187C6.8116 17.0406 6.63917 17.8506 6.34375 18.6188C5.93347 19.3122 5.41651 19.9368 4.81188 20.4694C3.76811 21.3272 2.99161 22.4657 2.57406 23.7506C2.40413 25.0558 2.6066 26.3824 3.15813 27.5775C3.48191 28.3487 3.68157 29.1663 3.74969 30C3.68254 30.8368 3.48287 31.6577 3.15813 32.4319C2.6066 33.6269 2.40413 34.9536 2.57406 36.2587C2.99172 37.5438 3.76859 38.6824 4.81281 39.54C5.41693 40.0729 5.93355 40.6973 6.34375 41.3906C6.63917 42.1588 6.8116 42.9687 6.85469 43.7906C6.87667 45.1249 7.27757 46.4255 8.01063 47.5406C8.9375 48.5036 10.1191 49.1831 11.4175 49.5C12.2053 49.7224 12.9529 50.0679 13.6328 50.5238C14.2234 51.0825 14.7223 51.7308 15.1112 52.4447C15.7111 53.6463 16.6412 54.6519 17.7925 55.3434C19.0365 55.8062 20.3862 55.9066 21.685 55.6331C22.502 55.4906 23.3364 55.4785 24.1572 55.5975C24.917 55.84 25.634 56.2006 26.2816 56.6663C27.3587 57.4932 28.6476 57.9989 29.9997 58.125C31.3517 57.9991 32.6406 57.4938 33.7178 56.6672C34.3654 56.2004 35.0822 55.8382 35.8422 55.5938C36.6632 55.4775 37.4972 55.4899 38.3144 55.6303C39.6131 55.9053 40.9632 55.8048 42.2069 55.3406C43.3589 54.6493 44.2894 53.6432 44.8891 52.4409C45.2778 51.7271 45.7764 51.0789 46.3666 50.52C47.0467 50.0655 47.7943 49.7213 48.5819 49.5C49.8808 49.1817 51.0624 48.5005 51.9888 47.5359C52.7218 46.4208 53.1227 45.1203 53.1447 43.7859C53.1878 42.9641 53.3602 42.1541 53.6556 41.3859C54.0659 40.6925 54.5829 40.0679 55.1875 39.5353C56.2313 38.6775 57.0078 37.5389 57.4253 36.2541C57.5952 34.9489 57.3928 33.6223 56.8413 32.4272C56.517 31.6545 56.3173 30.8352 56.2497 30C56.3168 29.1632 56.5165 28.3423 56.8413 27.5681C57.3928 26.3731 57.5952 25.0464 57.4253 23.7412ZM55.0703 33.0487C55.4819 33.9196 55.6633 34.8815 55.5972 35.8425C55.2358 36.7706 54.6379 37.588 53.8628 38.2134C53.1028 38.8893 52.462 39.6883 51.9672 40.5769C51.573 41.5316 51.3413 42.5456 51.2819 43.5769C51.2736 44.5563 51.0127 45.5169 50.5244 46.3659C49.8021 47.0338 48.9195 47.5037 47.9622 47.73C46.9725 48.0145 46.0376 48.4632 45.1966 49.0575C44.4351 49.743 43.794 50.5514 43.3 51.4491C42.8666 52.338 42.2087 53.0984 41.3913 53.655C40.4604 53.9391 39.4721 53.9785 38.5216 53.7694C37.4974 53.5988 36.452 53.5988 35.4278 53.7694C34.4579 54.0521 33.5423 54.4958 32.7194 55.0819C31.931 55.7032 30.9931 56.106 29.9997 56.25C29.0066 56.1056 28.0689 55.7024 27.2809 55.0809C26.4582 54.495 25.543 54.0514 24.5734 53.7684C24.1482 53.6763 23.7139 53.6319 23.2787 53.6363C22.6768 53.6476 22.0759 53.6921 21.4788 53.7694C20.5282 53.9781 19.54 53.9387 18.6091 53.655C17.7921 53.0978 17.1343 52.3376 16.7003 51.4491C16.2064 50.5517 15.5653 49.7436 14.8038 49.0584C13.9633 48.4635 13.0287 48.0144 12.0391 47.73C11.0814 47.5047 10.1985 47.0347 9.47688 46.3659C8.98832 45.5173 8.72708 44.557 8.71844 43.5778C8.65919 42.5466 8.42787 41.5327 8.03406 40.5778C7.53887 39.6898 6.89809 38.8912 6.13844 38.2153C5.3639 37.589 4.76664 36.771 4.40594 35.8425C4.33983 34.8815 4.52123 33.9196 4.93281 33.0487C5.33245 32.0784 5.56633 31.0478 5.62469 30C5.56513 28.952 5.32999 27.9214 4.92906 26.9513C4.51748 26.0804 4.33608 25.1185 4.40219 24.1575C4.76358 23.2294 5.36151 22.412 6.13656 21.7866C6.89655 21.1107 7.53738 20.3117 8.03219 19.4231C8.42641 18.4684 8.65804 17.4544 8.7175 16.4231C8.72574 15.4437 8.98665 14.4831 9.475 13.6341C10.1972 12.9662 11.0798 12.4963 12.0372 12.27C13.0269 11.9855 13.9618 11.5368 14.8028 10.9425C15.5643 10.2569 16.2052 9.44813 16.6984 8.55C17.1324 7.6612 17.7906 6.90088 18.6081 6.34406C19.539 6.06042 20.5273 6.02103 21.4778 6.22969C22.5018 6.40219 23.5475 6.40219 24.5716 6.22969C25.5415 5.94696 26.4571 5.50329 27.28 4.91719C28.0684 4.29622 29.0064 3.89368 29.9997 3.75C30.9928 3.89438 31.9305 4.29757 32.7184 4.91906C33.5412 5.50496 34.4564 5.94863 35.4259 6.23156C36.45 6.40396 37.4956 6.40396 38.5197 6.23156C39.4701 6.02202 40.4586 6.06141 41.3894 6.34594C42.2067 6.90234 42.8652 7.66194 43.3 8.55C43.794 9.44739 44.4351 10.2555 45.1966 10.9406C46.037 11.5355 46.9716 11.9846 47.9613 12.2691C48.919 12.4944 49.8018 12.9644 50.5234 13.6331C51.0121 14.482 51.2734 15.4427 51.2819 16.4222C51.3411 17.4534 51.5724 18.4673 51.9663 19.4222C52.4614 20.3102 53.1022 21.1088 53.8619 21.7847C54.6373 22.4104 55.2356 23.2281 55.5972 24.1566C55.6633 25.1175 55.4819 26.0794 55.0703 26.9503C54.6693 27.9207 54.4341 28.9517 54.3747 30C54.4342 31.048 54.6694 32.0786 55.0703 33.0487Z"/>
<path d="M33.1159 26.2498L29.9997 16.6479L26.8834 26.2498H16.7969L24.9587 32.1673L21.8434 41.7561L29.9997 35.8301L38.1559 41.7561L35.0406 32.1673L43.2025 26.2498H33.1159ZM34.5934 36.8436L29.9997 33.5117L25.4059 36.8436L27.1591 31.4464L22.5775 28.1248H28.2466L29.9997 22.723L31.7528 28.1248H37.4219L32.8366 31.4501L34.5934 36.8436Z"/>
<path d="M47.8125 30C47.8125 26.477 46.7678 23.0332 44.8106 20.1039C42.8533 17.1747 40.0714 14.8916 36.8166 13.5434C33.5617 12.1952 29.9802 11.8425 26.525 12.5298C23.0697 13.2171 19.8958 14.9135 17.4047 17.4047C14.9135 19.8958 13.2171 23.0697 12.5298 26.525C11.8425 29.9802 12.1952 33.5617 13.5434 36.8166C14.8916 40.0714 17.1747 42.8533 20.1039 44.8106C23.0332 46.7678 26.477 47.8125 30 47.8125C34.7226 47.8073 39.2502 45.929 42.5896 42.5896C45.929 39.2502 47.8073 34.7226 47.8125 30ZM30 45.9375C26.8479 45.9375 23.7665 45.0028 21.1456 43.2516C18.5247 41.5003 16.4819 39.0112 15.2757 36.099C14.0694 33.1868 13.7538 29.9823 14.3687 26.8908C14.9837 23.7992 16.5016 20.9594 18.7305 18.7305C20.9594 16.5016 23.7992 14.9837 26.8908 14.3687C29.9823 13.7538 33.1868 14.0694 36.099 15.2757C39.0112 16.4819 41.5003 18.5247 43.2516 21.1456C45.0028 23.7665 45.9375 26.8479 45.9375 30C45.9328 34.2254 44.2522 38.2765 41.2643 41.2643C38.2765 44.2522 34.2254 45.9328 30 45.9375Z"/>
</svg>
