<svg width="60" height="60" viewBox="0 0 60 60" fill="#363636" xmlns="http://www.w3.org/2000/svg">
<g clip-path="url(#clip0_527_605)">
<path d="M55.0781 21.0938H38.5963C38.6485 20.5156 38.6769 19.9301 38.6769 19.3382C38.6769 8.67508 30.0014 0 19.3382 0C15.9416 0 12.6004 0.893555 9.67575 2.58362C9.11545 2.90726 8.92365 3.62411 9.24728 4.18442C9.57138 4.74518 10.2882 4.93652 10.8485 4.61288C13.4171 3.12836 16.3527 2.34375 19.3382 2.34375C28.7091 2.34375 36.3332 9.96735 36.3332 19.3382C36.3332 28.7091 28.7091 36.3332 19.3382 36.3332C15.4156 36.3332 11.7307 35.0336 8.68149 32.5754C8.3757 32.3291 7.97058 32.2554 7.60162 32.3685L4.49112 33.1819L5.70969 30.504C5.88501 30.1195 5.83923 29.6709 5.59067 29.3289C3.46664 26.4116 2.34375 22.9568 2.34375 19.3382C2.34375 16.3449 3.13248 13.4019 4.62479 10.8279C4.94934 10.2676 4.75845 9.55078 4.19861 9.22623C3.63876 8.90167 2.92191 9.0921 2.59689 9.6524C0.898132 12.583 0 15.9325 0 19.3382C0 23.2242 1.13846 26.9453 3.2991 30.1428L1.33713 34.4536C1.14944 34.8651 1.21582 35.3476 1.50696 35.6937C1.7981 36.0397 2.26227 36.1871 2.69989 36.0727L7.68356 34.7699C11.0243 37.2935 15.1392 38.6769 19.3382 38.6769C20.2524 38.6769 21.151 38.6115 22.0312 38.4883V48.75C22.0312 51.4636 24.239 53.6719 26.9527 53.6719H43.5269L50.9377 59.735C51.151 59.9098 51.4142 59.9995 51.6797 59.9995C51.8504 59.9995 52.0216 59.9625 52.1814 59.8869C52.5906 59.6928 52.8516 59.2809 52.8516 58.8277V53.6719H55.0781C57.7922 53.6719 60 51.4636 60 48.75V26.0156C60 23.3015 57.7922 21.0938 55.0781 21.0938ZM57.6562 48.75C57.6562 50.1714 56.4999 51.3281 55.0781 51.3281H51.6797C51.0324 51.3281 50.5078 51.8527 50.5078 52.5V56.3548L44.7198 51.6193C44.4008 51.3281 44.1216 51.3281 43.494 51.3281H26.9527C25.5313 51.3281 24.375 50.1714 24.375 48.75V38.0099C31.3069 36.1382 36.7076 30.5013 38.2379 23.4375H55.0781C56.4999 23.4375 57.6562 24.5938 57.6562 26.0156V48.75Z"/>
<path d="M46.8468 40.8524C47.2442 40.6651 47.5198 40.2618 47.5198 39.7931C47.5198 39.1463 46.9952 38.6212 46.3479 38.6212H45.8681L42.0888 30.0079C41.9016 29.5818 41.4805 29.3066 41.0154 29.3066C40.5503 29.3066 40.1292 29.5818 39.9424 30.0079L36.1631 38.6212H35.6834C35.0361 38.6212 34.5115 39.1463 34.5115 39.7931C34.5115 40.2618 34.7871 40.6651 35.1844 40.8524L33.7768 44.0604C33.5168 44.6532 33.7864 45.3444 34.3787 45.6044C34.9715 45.8644 35.6628 45.5948 35.9228 45.002L37.6943 40.965H44.3369L46.1085 45.002C46.3012 45.4414 46.731 45.7033 47.1824 45.7033C47.3394 45.7033 47.4992 45.6717 47.6525 45.6044C48.2449 45.3444 48.5149 44.6532 48.2545 44.0604L46.8468 40.8524ZM38.7225 38.6212L41.0154 33.3954L43.3083 38.6212H38.7225Z"/>
<path d="M6.49219 7.66382C6.80026 7.66382 7.10239 7.53839 7.32074 7.3205C7.53864 7.1026 7.66406 6.80048 7.66406 6.49194C7.66406 6.18387 7.53864 5.88174 7.32074 5.66339C7.10239 5.4455 6.80026 5.32007 6.49219 5.32007C6.18274 5.32007 5.88153 5.4455 5.66364 5.66339C5.44574 5.88174 5.32031 6.18387 5.32031 6.49194C5.32031 6.80048 5.44574 7.1026 5.66364 7.3205C5.88153 7.53885 6.18365 7.66382 6.49219 7.66382Z"/>
<path d="M12.3432 26.4703C11.7755 26.7816 11.5677 27.4939 11.879 28.0615C12.0923 28.4502 12.4938 28.6703 12.9076 28.6703C13.098 28.6703 13.2912 28.6236 13.4702 28.5257C16.0835 27.0924 18.094 24.8631 19.27 22.2342C20.4465 24.8631 22.4565 27.0924 25.0699 28.5257C25.2489 28.6236 25.4421 28.6703 25.6325 28.6703C26.0463 28.6703 26.4478 28.4502 26.6611 28.0615C26.9724 27.4939 26.7646 26.7816 26.1969 26.4703C23.1377 24.7926 21.0787 21.7943 20.5673 18.4064H25.7703C26.4176 18.4064 26.9422 17.8818 26.9422 17.2345C26.9422 16.5872 26.4176 16.0626 25.7703 16.0626H20.4419V11.1792C20.4419 10.5319 19.9173 10.0073 19.27 10.0073C18.6228 10.0073 18.0982 10.5319 18.0982 11.1792V16.0626H13.8648C13.2175 16.0626 12.6929 16.5872 12.6929 17.2345C12.6929 17.8818 13.2175 18.4064 13.8648 18.4064H17.9727C17.4614 21.7943 15.4024 24.7931 12.3432 26.4703Z"/>
</g>
<defs>
<clipPath id="clip0_527_605">
<rect width="60" height="60" fill="white"/>
</clipPath>
</defs>
</svg>
