<svg width="60" height="60" viewBox="0 0 60 60" fill="#363636" xmlns="http://www.w3.org/2000/svg">
<g clip-path="url(#clip0_527_622)">
<path d="M6.44502 24.8263C6.65742 24.9892 6.90782 25.068 7.15639 25.068C7.50841 25.068 7.85677 24.91 8.08794 24.6088L8.11907 24.5681C8.51228 24.054 8.41478 23.3188 7.90071 22.9256C7.3871 22.5319 6.65147 22.6299 6.2578 23.1435L6.22667 23.1843C5.83345 23.6979 5.93095 24.433 6.44502 24.8263Z"/>
<path d="M51.8246 40.3125H51.793C51.1457 40.3125 50.6211 40.8371 50.6211 41.4844C50.6211 42.1317 51.1457 42.6562 51.793 42.6562H51.8246C52.4718 42.6562 52.9964 42.1317 52.9964 41.4844C52.9964 40.8371 52.4718 40.3125 51.8246 40.3125Z"/>
<path d="M51.2132 20.2711C45.547 14.6049 38.0132 11.4844 30 11.4844C28.5411 11.4844 27.0941 11.591 25.6691 11.7984C25.6252 11.8025 25.5821 11.8089 25.5396 11.8176C19.7145 12.6897 14.257 15.2577 9.84146 19.2664C9.36218 19.7012 9.32648 20.4424 9.76135 20.9216C10.1967 21.4009 10.9378 21.4366 11.4166 21.0017C11.6757 20.7664 11.9394 20.5385 12.2058 20.3146L13.6523 22.8204C11.0468 24.5201 8.81653 26.7499 7.11731 29.3555L5.58975 28.4738C5.8049 28.071 6.02921 27.6732 6.2645 27.2809C6.59775 26.7256 6.41739 26.006 5.86258 25.6732C5.30731 25.34 4.58771 25.5203 4.25491 26.0751C3.79578 26.8405 3.37326 27.6251 2.98599 28.4258C2.98004 28.4386 2.97318 28.4514 2.96768 28.4642C1.02036 32.5058 0 36.9562 0 41.4844C0 42.1317 0.524597 42.6562 1.17188 42.6562H4.6875C5.33478 42.6562 5.85938 42.1317 5.85938 41.4844C5.85938 30.4994 14.7963 21.5625 25.7812 21.5625C30.0183 21.5625 34.1487 22.9207 37.5476 25.4091L28.1081 34.8486C27.3642 34.5868 26.5851 34.4531 25.7812 34.4531C21.904 34.4531 18.75 37.6076 18.75 41.4844C18.75 45.3616 21.904 48.5156 25.7812 48.5156C29.6581 48.5156 32.8125 45.3616 32.8125 41.4844C32.8125 40.6805 32.6788 39.9014 32.417 39.1576L41.8565 29.718C44.3449 33.1174 45.7031 37.2478 45.7031 41.4844C45.7031 42.1317 46.2277 42.6562 46.875 42.6562C47.5223 42.6562 48.0469 42.1317 48.0469 41.4844C48.0469 37.955 47.2023 34.4916 45.6207 31.3829L53.4604 26.857C55.9232 30.7924 57.4251 35.3874 57.632 40.3125H55.1912C54.5439 40.3125 54.0193 40.8371 54.0193 41.4844C54.0193 42.1317 54.5439 42.6562 55.1912 42.6562H58.8281C59.4754 42.6562 60 42.1317 60 41.4844C60 33.4712 56.8794 25.9373 51.2132 20.2711ZM3.5463 40.3125H2.36847C2.51038 36.953 3.26019 33.6598 4.57306 30.5933L5.94315 31.3843C4.56024 34.0897 3.71292 37.1123 3.5463 40.3125ZM39.4373 15.488L35.8827 21.6444C33.1192 20.2386 30.0751 19.4165 26.9531 19.2513V13.9966C27.9597 13.8858 28.9764 13.8281 30 13.8281C33.3128 13.8281 36.4906 14.415 39.4373 15.488ZM14.0781 18.8704C17.2421 16.6393 20.8269 15.1067 24.6094 14.3578V19.2499C21.4091 19.417 18.3861 20.2634 15.6812 21.6463L14.0781 18.8704ZM42.4937 25.7661L26.2784 41.9815C26.0092 42.2511 25.5537 42.2511 25.2841 41.9815C25.0145 41.7123 25.0145 41.2569 25.2841 40.9872L41.4995 24.7719C41.6309 24.6405 41.8076 24.5682 41.9966 24.5682C42.1857 24.5682 42.3624 24.6405 42.4937 24.7719C42.6251 24.9033 42.6974 25.08 42.6974 25.269C42.6974 25.4581 42.6251 25.6348 42.4937 25.7661ZM30.4688 41.4844C30.4688 44.0689 28.3658 46.1719 25.7812 46.1719C23.1967 46.1719 21.0938 44.0689 21.0938 41.4844C21.0938 38.8998 23.1967 36.7969 25.7812 36.7969C25.9035 36.7969 26.0243 36.8033 26.1443 36.8124L23.627 39.3301C22.4391 40.518 22.4391 42.4507 23.627 43.6391C24.2207 44.2328 25.0012 44.5299 25.7812 44.5299C26.5617 44.5299 27.3418 44.2328 27.9359 43.6391L30.4536 41.1214C30.4628 41.2418 30.4688 41.3626 30.4688 41.4844ZM44.4498 29.3532C44.1595 28.9064 43.8538 28.4697 43.531 28.044L44.1508 27.4237C44.7249 26.8497 45.0412 26.0843 45.0412 25.269C45.0412 24.4537 44.7249 23.6888 44.1508 23.1148C43.5768 22.5407 42.8119 22.2244 41.9966 22.2244C41.1813 22.2244 40.416 22.5407 39.8419 23.1148L39.2216 23.7346C38.7959 23.4119 38.3592 23.1061 37.9124 22.8159L41.6217 16.3911C45.7906 18.3298 49.3991 21.2769 52.1315 24.9179L44.4498 29.3532Z"/>
</g>
<defs>
<clipPath id="clip0_527_622">
<rect width="60" height="60" fill="white"/>
</clipPath>
</defs>
</svg>
