<svg width="60" height="60" viewBox="0 0 60 60" fill="##363636" xmlns="http://www.w3.org/2000/svg">
<g clip-path="url(#clip0_527_655)">
<path d="M59.9879 22.9376C59.9817 22.8687 59.968 22.8006 59.9469 22.7347C59.9332 22.6757 59.9141 22.6182 59.89 22.5626C59.8619 22.5084 59.8284 22.457 59.79 22.4096C59.7514 22.3532 59.7068 22.3013 59.657 22.2545C59.6409 22.2406 59.634 22.2215 59.617 22.2075L49.9995 14.7382V6.99688C49.9995 5.34 48.6563 3.99673 46.9994 3.99673H36.1618L31.8225 0.627532C30.7505 -0.208526 29.2473 -0.208526 28.1753 0.627532L23.835 3.99673H12.9975C11.3406 3.99673 9.9973 5.33988 9.9973 6.99688V14.7383L0.382871 22.2076C0.365878 22.2217 0.358846 22.2407 0.342908 22.2546C0.293101 22.3013 0.24845 22.3533 0.209893 22.4097C0.171454 22.4572 0.137937 22.5084 0.109927 22.5627C0.0856684 22.6182 0.0666831 22.6758 0.0529714 22.7348C0.032111 22.7998 0.0183994 22.8669 0.0119537 22.9348C0.0119537 22.9558 0 22.9739 0 22.9948V56.9993C0.00140632 57.6355 0.207198 58.2542 0.587022 58.7644C0.592999 58.7734 0.594054 58.7844 0.600968 58.7924C0.608 58.8004 0.623 58.8094 0.632962 58.8204C1.19479 59.5597 2.06858 59.9955 2.99711 59.9995H56.9998C57.932 59.9967 58.8094 59.5587 59.372 58.8155C59.3799 58.8055 59.392 58.8025 59.3989 58.7925C59.4059 58.7826 59.4069 58.7735 59.413 58.7645C59.7928 58.2542 59.9986 57.6355 60 56.9995V22.9977C59.9999 22.9767 59.989 22.9586 59.9879 22.9376ZM29.3983 2.20554C29.7476 1.92803 30.2421 1.92803 30.5914 2.20554L32.8984 3.99661H27.0982L29.3983 2.20554ZM3.24907 57.9995L29.3984 37.6874C29.7479 37.4103 30.2421 37.4103 30.5915 37.6874L56.7478 57.9995H3.24907ZM57.9999 56.4403L31.8225 36.1093C30.7503 35.2739 29.2475 35.2739 28.1753 36.1093L1.99698 56.4403V24.5207L18.3848 37.2464C18.8215 37.585 19.4499 37.5055 19.7885 37.0688C20.127 36.6322 20.0476 36.0038 19.6109 35.6652L2.96206 22.7376L9.99742 17.2703V24.9977C9.99742 25.55 10.4452 25.9977 10.9974 25.9977C11.5498 25.9977 11.9974 25.5499 11.9974 24.9977V6.99676C11.9974 6.44443 12.4451 5.99675 12.9975 5.99675H46.9991C47.5515 5.99675 47.9992 6.44443 47.9992 6.99676V24.9977C47.9992 25.55 48.4468 25.9977 48.9992 25.9977C49.5515 25.9977 49.9992 25.5499 49.9992 24.9977V17.2703L57.0345 22.7376L40.3567 35.6883C40.0698 35.9057 39.9218 36.2606 39.9694 36.6174C40.017 36.9743 40.2527 37.278 40.5866 37.4127C40.9204 37.5473 41.301 37.4923 41.5828 37.2683L57.9996 24.5207V56.4403H57.9999Z"/>
</g>
<defs>
<clipPath id="clip0_527_655">
<rect width="60" height="59.999" fill="white" transform="translate(0 0.000488281)"/>
</clipPath>
</defs>
</svg>
